<?xml version="1.0" standalone="no"?>
<!DOCTYPE svg PUBLIC "-//W3C//DTD SVG 1.1//EN" "http://www.w3.org/Graphics/SVG/1.1/DTD/svg11.dtd" >
<svg xmlns="http://www.w3.org/2000/svg">
<metadata></metadata>
<defs>
<font id="natura_scriptregular" horiz-adv-x="780" >
<font-face units-per-em="2048" ascent="1638" descent="-410" />
<missing-glyph horiz-adv-x="716" />
<glyph horiz-adv-x="0" />
<glyph horiz-adv-x="682" />
<glyph unicode=" "  horiz-adv-x="716" />
<glyph unicode="&#x09;" horiz-adv-x="716" />
<glyph unicode="&#xa0;" horiz-adv-x="716" />
<glyph unicode="!" horiz-adv-x="722" d="M180 49q0 29 21 35q12 6 26 6q25 0 40.5 -15t15.5 -34q0 -15 -13 -31t-30 -16q-21 0 -40.5 17t-19.5 38zM264 315q0 21 4.5 46.5t13.5 64.5t11 47q9 41 20.5 108t16.5 95q2 9 11 66.5t15.5 90.5t18.5 79t27 69t32 23q18 0 27.5 -13.5t9.5 -29.5q0 -26 -6 -41 q-54 -273 -156 -578q-17 -40 -24 -43q-2 -2 -6 -2q-15 0 -15 18z" />
<glyph unicode="&#x22;" horiz-adv-x="610" d="M205 1001q0 60 37 60q21 0 27.5 -14t6.5 -39q0 -62 -24 -166q-10 -25 -16 -25q-12 0 -21.5 61.5t-9.5 122.5zM334 997q0 23 9 43.5t28 20.5q35 0 35 -53q0 -58 -25 -166q-10 -25 -16 -25q-12 0 -21.5 59.5t-9.5 120.5z" />
<glyph unicode="#" horiz-adv-x="712" d="M102 219q0 13 18 20t62 12.5t58 8.5q18 87 20 94q-62 -6 -84 -6q-47 3 -47 29q0 10 8 16t23.5 9t32 4t40 3t41.5 5q7 22 14 45t11 36t8 26.5t7 20t7 12t9 7.5t12 2q12 0 19.5 -11t7.5 -26q0 -24 -25 -104q30 7 45.5 9t31 2.5t32.5 2.5l8 23q32 80 43.5 101.5t25.5 21.5 q9 0 15 -8.5t6 -20.5q0 -6 -1 -11.5t-3.5 -15t-5.5 -17.5t-10 -27.5t-13 -37.5l53 7q30 0 37 -11q2 -4 2 -10q0 -30 -100 -43q-9 -1 -14 -2q-40 -101 -41 -109q26 0 43 -4.5t23.5 -10.5t6.5 -13q0 -13 -13.5 -16.5t-40 -4t-40.5 -4.5q-36 -101 -45 -112q-7 -9 -14 -9 q-15 0 -15 31q0 30 19 88q-17 -2 -50 -3t-40 -3q-10 -32 -23 -79q-20 -75 -35 -75q-2 0 -5.5 2t-8 13.5t-4.5 29.5q0 23 16 105q-16 0 -43 -3t-47 -3q-37 0 -37 14zM301 266q26 3 96 8q14 43 22 64.5t13 38.5q-20 -2 -56.5 -8.5t-47.5 -8.5z" />
<glyph unicode="$" horiz-adv-x="696" d="M102 145q0 25 35 25t105.5 -25.5t111.5 -25.5q79 0 121.5 47.5t42.5 116.5q0 149 -182 192q-82 20 -151.5 96t-69.5 160q0 58 30.5 109.5t92.5 85.5q41 22 69 24v84q0 23 0.5 35.5t4 30.5t12 26.5t22.5 8.5q12 0 19 -7t10 -21t3.5 -23.5t0.5 -26.5q0 -8 -0.5 -21 t-1.5 -36t-2 -44q39 0 100.5 -19.5t61.5 -47.5q0 -10 -12.5 -17.5t-26.5 -7.5q-24 0 -65 15.5t-60 15.5q-69 0 -127 -50.5t-58 -109.5q0 -34 16 -64.5t37.5 -50t56 -39.5t56.5 -29t56 -22q123 -45 165 -141q19 -43 19 -82q0 -87 -61.5 -162t-147.5 -92v-26q0 -4 0.5 -20 t0 -26t-1 -26t-3.5 -26t-7 -21t-11 -16t-17 -5q-33 0 -33 70q0 1 1 28.5t1 59.5q-118 3 -200 76q-13 16 -13 24z" />
<glyph unicode="%" horiz-adv-x="1040" d="M109 14q0 5 1.5 10t5 11.5t6.5 11.5t10 13.5t11.5 14l13.5 16.5t15 18q41 48 120.5 157t149.5 191l320 411q70 88 98 88q21 0 21 -26q0 -11 -11 -29q-10 -24 -136 -180t-136 -174q-56 -71 -171 -221.5t-177 -223.5q-5 -7 -22 -28t-25 -30t-22 -22t-26 -18.5t-24 -5.5 q-6 0 -14 4.5t-8 11.5zM109 707q0 153 79 221q19 16 56 16q25 0 46.5 -8.5t42.5 -30t33.5 -64.5t12.5 -104q0 -50 -18 -103t-53 -91.5t-77 -38.5q-60 0 -91 63t-31 140zM164 725q0 -65 20 -110.5t56 -45.5q14 0 26 9q24 13 36.5 55.5t12.5 95.5q0 65 -19 106.5t-54 41.5 q-34 0 -56 -39.5t-22 -112.5zM668 178q0 74 16 129.5t64 91.5q20 17 55 17q55 0 95 -45t40 -160q0 -81 -46 -157.5t-106 -76.5t-89 60t-29 141zM723 203q0 -67 19.5 -113.5t58.5 -46.5q12 0 24 6q23 13 36 57t13 97q0 64 -18 105.5t-53 41.5q-34 0 -57 -38t-23 -109z" />
<glyph unicode="&#x26;" horiz-adv-x="1099" d="M102 195q0 100 103 215q57 63 143 165q-40 54 -82 123q-35 52 -35 115q0 80 73.5 157t184.5 77q60 0 97 -34.5t37 -94.5q0 -133 -193 -340q1 -1 33 -46q23 -32 85 -102t87 -100q12 -15 43.5 -58t50.5 -67q103 63 176 166q1 1 4.5 6.5t5.5 8.5t6 8t8 7.5t9.5 4.5t11.5 2 q17 0 17 -23q0 -5 -17 -39q-71 -107 -180 -192q86 -93 160 -121q4 -1 13.5 -5t13.5 -5.5t12 -5t11.5 -6t8 -5.5t6.5 -6.5t2 -7.5q0 -10 -13.5 -18.5t-33.5 -8.5q-97 0 -227 154q-91 -61 -184.5 -95t-173.5 -34q-42 0 -85.5 11t-84.5 33.5t-67 64t-26 96.5zM180 205 q0 -67 44 -110.5t124 -43.5q89 0 153 26t179 97l-33 45q-46 59 -131.5 154.5t-132.5 154.5q-129 -138 -166 -202t-37 -121zM299 825q0 -40 23.5 -85t70.5 -111l41 45q123 137 123 227q0 38 -24.5 59t-61.5 21q-67 0 -119.5 -50.5t-52.5 -105.5z" />
<glyph unicode="'" horiz-adv-x="481" d="M205 1001q0 66 37 66q34 0 34 -43q0 -93 -26 -176q-2 -8 -7.5 -16.5t-9.5 -8.5q-5 0 -11.5 29t-11.5 72t-5 77z" />
<glyph unicode="(" horiz-adv-x="501" d="M102 385q0 139 29 250q7 64 38 142.5t68.5 140.5t75 104.5t58.5 42.5q22 0 22 -29q0 -13 -65 -116q-125 -196 -150 -390q-10 -72 -10 -172q0 -114 40.5 -264.5t100.5 -255.5q11 -19 29.5 -47.5t29.5 -47t11 -24.5q-1 -2 -1.5 -5.5t-1 -5.5t-1.5 -5t-1.5 -4t-2 -3t-2.5 -3 t-3 -1.5t-4 -0.5q-35 0 -94 90q-166 244 -166 604z" />
<glyph unicode=")" horiz-adv-x="501" d="M109 -258q0 14 65 117q125 196 150 389q10 72 10 172q0 114 -40.5 264.5t-100.5 255.5q-11 19 -29.5 47.5t-29.5 47t-11 24.5q1 3 2 9t2 8t2.5 5.5t4 4.5t5.5 1q35 0 94 -90q166 -244 166 -604q0 -143 -28 -250q-7 -64 -38 -142.5t-68.5 -140.5t-75 -104.5t-58.5 -42.5 q-22 0 -22 29z" />
<glyph unicode="*" horiz-adv-x="743" d="M102 688q0 17 16 22.5t60 8.5q15 1 31 3t36 5t31 4l62 8q-12 19 -31.5 49t-25.5 39q-37 56 -37 78q0 19 18 19q14 0 27.5 -17t62.5 -94l23 -35q73 108 109.5 145.5t58.5 37.5q18 0 18 -19q0 -4 -2 -8q-17 -32 -74 -109q-40 -51 -53 -71q9 0 37 4l63 8q49 8 84 8 q16 0 21 -10q4 -8 4 -12q0 -38 -137 -50l-31 -4l-45 -8l39 -57q57 -89 60 -101q1 -3 1 -6q0 -8 -8 -8q-14 0 -60.5 55.5t-80.5 106.5q-47 -63 -62 -86q-20 -30 -30.5 -44.5t-24.5 -33.5t-23.5 -27t-15.5 -8q-12 0 -12 19q0 17 28.5 68.5t63.5 101.5l-49 -4q-72 -7 -90 -7 q-62 0 -62 29z" />
<glyph unicode="+" horiz-adv-x="937" d="M102 502q0 32 76 39q96 5 254 8q0 34 -4 118.5t-4 135.5q0 84 43 84q17 0 28 -10.5t15 -30.5t5 -32.5t1 -33.5q0 -89 -4 -229h74q155 0 194 -8q56 -14 56 -33t-35 -31q-6 -2 -14.5 -3.5t-29.5 -1.5h-44h-76t-107 -1h-20v-80q0 -28 2 -65.5t2 -79.5q0 -121 -37 -121 q-18 0 -26 23q-15 38 -15 141q0 58 -4 180q-256 -7 -276 -10q-21 0 -37.5 12t-16.5 29z" />
<glyph unicode="," horiz-adv-x="530" d="M205 -125q1 14 16.5 42.5t18.5 41.5t5 38t4 42t12 31t28 14q37 0 37 -39q0 -42 -27 -96t-51 -70q-18 -18 -31 -18q-12 4 -12 14z" />
<glyph unicode="-" horiz-adv-x="913" d="M205 260q0 27 51 29q94 4 356 4h56q15 0 28 -6.5t13 -14.5q0 -28 -41 -28q-420 -8 -432 -8q-14 0 -22.5 7t-8.5 17z" />
<glyph unicode="." horiz-adv-x="507" d="M205 45q0 24 12 31q12 12 31 12q23 0 39 -17t16 -36q0 -16 -11 -30.5t-32 -14.5q-55 0 -55 55z" />
<glyph unicode="/" horiz-adv-x="796" d="M102 -51q0 23 45 88q35 50 96.5 159t114.5 187q70 112 148 241t104 171q4 4 19 25.5t28.5 36.5t20.5 15q8 0 12 -10t4 -18q0 -13 -2 -19q-8 -22 -108 -177t-109 -175q-50 -80 -138.5 -226t-137.5 -220q-5 -7 -15 -23t-16 -25t-15.5 -20.5t-18 -18t-17.5 -8.5 q-13 1 -15 13v4z" />
<glyph unicode="0" horiz-adv-x="843" d="M82 186q0 75 17.5 163t51.5 177.5t94 163t136 105.5q2 5 9 14.5t11 9.5q14 21 44.5 33t48.5 14t32 2q62 0 110 -33t74 -85t39 -106.5t13 -106.5q0 -146 -70 -308q-55 -127 -158.5 -222t-222.5 -95q-109 0 -169 80t-60 194zM147 213q0 -98 44 -168t114 -70q76 0 160 63 t127 132q106 172 106 358q0 33 -6 71.5t-20.5 84.5t-46 81t-74.5 46q-21 0 -27 2q3 -2 11 -6t12.5 -6.5t10.5 -7t8.5 -9t2.5 -10.5q0 -26 -34 -26q-2 0 -50 6q-54 0 -103 -29t-85.5 -76.5t-63.5 -99t-45 -107.5q-41 -135 -41 -229z" />
<glyph unicode="1" horiz-adv-x="636" d="M137 584q0 5 2 10.5t7 13t10.5 14t14.5 16t16 16.5t18.5 18t18.5 18t20 19t20 18q2 2 61.5 64.5t101 96t67.5 34.5q14 0 20 -9q12 -5 12 -18q0 -6 -2.5 -15t-5.5 -14l-2 -6q-59 -185 -92 -325q-18 -45 -44 -140t-32 -127q-1 -4 -29 -119t-50.5 -176t-43.5 -61 q-11 0 -20.5 8t-9.5 21q0 18 5.5 41t17.5 57t15 45q30 106 100.5 364t104.5 377q-34 -49 -159 -159q-5 -5 -26 -29t-33.5 -37t-31 -26t-32.5 -13q-11 3 -15 7.5t-4 15.5z" />
<glyph unicode="2" horiz-adv-x="878" d="M63 2q9 86 100 142.5t191 56.5l31 -2q37 47 117 168q59 91 98 176.5t39 120.5q0 56 -35.5 85t-85.5 29q-48 0 -91.5 -25t-92.5 -69q-31 -22 -47 -22q-10 0 -17.5 8.5t-7.5 17.5q0 10 21 41q106 113 225 113q83 0 142 -49.5t59 -128.5q0 -143 -254 -471q78 -10 120 -19.5 t105 -34.5q116 -59 145 -114q0 -2 1 -9t1 -10q0 -10 -6 -18t-14 -8q-5 0 -10.5 2.5t-9 5t-10 8t-7.5 6.5q-38 41 -82 68q-37 22 -101.5 41t-112 27t-50.5 5q-21 -16 -39 -41q-6 -6 -19 -18t-45 -38.5t-62.5 -47t-68 -37t-65.5 -16.5t-45 15t-17 42zM129 25q0 -15 16 -15 q14 0 27 8q30 15 73 46t71 55l28 24h-12q-38 0 -87 -21t-82.5 -49t-33.5 -48z" />
<glyph unicode="3" horiz-adv-x="751" d="M45 -23q0 25 31 25q18 0 70.5 -10t78.5 -10q61 0 123.5 20t115 57t85.5 96t33 130q0 54 -32 93.5t-83 39.5q-33 0 -85.5 -16.5t-76.5 -16.5q-37 0 -37 21q0 13 8 20t26 12t20 6q23 10 92 50q166 98 166 256q0 50 -32.5 75t-74.5 25q-39 0 -88.5 -18.5t-69.5 -45.5 q-13 -18 -40 -35.5t-48 -17.5q-11 0 -19.5 9.5t-8.5 21.5q0 36 47 61l4 2q112 86 223 86q78 0 127 -40t49 -113q0 -88 -48.5 -157t-151.5 -136q8 2 26 2q51 0 86 -18q88 -50 88 -162q0 -107 -62 -193t-157 -130t-201 -44q-178 0 -184 55z" />
<glyph unicode="4" horiz-adv-x="784" d="M96 272q0 10 10 45q13 26 25 58.5t40.5 111.5t61.5 166q2 4 27 74t33 88l2 2q19 39 37 39q11 0 17.5 -11.5t6.5 -21.5q0 -22 -16 -61.5t-18 -48.5q-7 -31 -17 -59t-26.5 -68t-24.5 -62q-69 -203 -84 -231q-2 -2 -2 -8q0 -17 25 -17q123 0 225 11q22 74 39 131t29.5 96.5 t17.5 54.5l4 10q2 12 14 26.5t23 14.5q10 0 15 -11t5 -23q0 -7 -3 -20t-3 -19l-2 -11q-6 -22 -30.5 -105.5t-39.5 -135.5q110 12 166 12q19 0 31 -6q21 -14 21 -27q0 -14 -7 -19.5t-17 -6.5t-11 -2q-6 -1 -36.5 -3t-79 -5.5t-87.5 -6.5q-25 -98 -46.5 -169.5t-36 -108 t-27.5 -57t-20 -25t-15 -4.5q-9 0 -16 7t-7 17q0 25 16 62q80 246 84 274q-118 -12 -211 -12q-92 0 -92 65z" />
<glyph unicode="5" horiz-adv-x="792" d="M61 -45q0 18 21 18q11 0 42 -6t52 -6q102 0 182.5 25t124 60.5t72 79t37 75t8.5 55.5q0 62 -45.5 92.5t-99.5 30.5q-34 0 -59.5 -5.5t-56 -17t-48.5 -16.5q-28 -8 -49 -8q-22 0 -37 12.5t-15 38.5q0 41 48 166.5t57 157.5q64 221 108 221q8 0 16 -5.5t9 -13.5 q0 -14 -14 -63q50 4 121.5 11.5t122.5 12t81 4.5q33 0 33 -16q0 -37 -139 -51l-244 -27q-33 -97 -43 -121q-9 -25 -36.5 -111t-30.5 -102q-1 -4 -2 -9t-2 -8.5t-1 -6.5q0 -19 17 -19q2 0 4.5 1t6.5 2t7 2q10 2 39.5 9t45 10.5t38.5 7t39 3.5q87 0 139 -49t52 -123 q0 -53 -25.5 -112.5t-61.5 -98.5q-79 -86 -171 -119.5t-228 -33.5q-40 0 -77.5 13.5t-37.5 39.5z" />
<glyph unicode="6" horiz-adv-x="749" d="M84 324q0 22 44.5 61t94.5 66q110 286 211 501q4 14 14.5 29.5t22.5 15.5q23 0 23 -34q0 -24 -13 -56.5t-36 -77t-29 -59.5q-18 -44 -54.5 -137.5t-56.5 -140.5q81 34 164 34q87 0 143 -40.5t56 -112.5q0 -114 -112.5 -216.5t-262.5 -142.5q-27 -8 -55 -8q-24 0 -44 7 t-31.5 16.5t-20 19t-12.5 16.5l-3 7q-8 21 -8 51q0 27 8 62t17 59t22 57t16 41q-9 -7 -19.5 -16.5t-15.5 -14t-11 -9t-11 -6t-10 -1.5q-15 0 -22.5 7.5t-8 11.5t-0.5 10zM184 147q0 -73 76 -73q77 0 161 53.5t142 126.5q43 55 43 111q0 49 -34.5 79.5t-94.5 30.5 q-42 0 -99.5 -18.5t-109.5 -50.5q-3 -7 -8.5 -21t-7.5 -20t-16 -38t-24 -58t-19 -61t-9 -61z" />
<glyph unicode="7" horiz-adv-x="671" d="M59 707q0 16 8.5 29t17.5 18l9 6q1 0 3 1t3 1q13 2 60.5 8.5t64 8.5t57 7t63.5 7t56.5 5t63 4t59.5 1q26 0 54 -4q24 -3 38.5 -20t14.5 -40q0 -15 -8 -39q-10 -23 -136 -249h113q11 0 28 -9.5t17 -21.5q0 -27 -59 -27h-8l-125 -8l-226 -410q-34 -61 -57 -61 q-9 0 -17 10.5t-8 22.5q0 11 6 24.5t18.5 34t18.5 31.5l195 348q-71 0 -109 1t-59 5t-26 9.5t-5 15.5q0 28 56 28q4 0 10.5 -1t9.5 -1q58 5 158 7l90 159q4 9 18.5 35.5t22.5 46.5t8 37q0 10 -4.5 13t-15.5 3q-88 0 -212 -15t-225 -40q-8 -2 -18 -2q-23 0 -23 21z" />
<glyph unicode="8" horiz-adv-x="731" d="M72 139q0 99 77.5 203.5t167.5 167.5q-74 29 -108.5 75t-34.5 97q0 94 96.5 186.5t204.5 92.5q21 0 21 -13q0 -7 -4 -12.5t-7.5 -7.5t-13.5 -6.5t-14 -6.5q17 -1 34.5 -5t27 -8t9.5 -5q97 -45 97 -137q0 -143 -197 -244q169 -109 205 -258q6 -30 6 -57q0 -107 -97 -191 t-231 -84q-97 0 -168 58.5t-71 154.5zM143 158q0 -70 46 -118t137 -48q145 0 204 94q41 64 41 129q0 142 -200 264q-106 -72 -164.5 -158.5t-63.5 -162.5zM240 702q0 -101 102 -141q16 -4 31 -14q102 54 144.5 101.5t47.5 105.5q0 54 -37.5 89.5t-115.5 35.5 q-56 0 -96 -36.5t-60 -80.5q-13 -29 -16 -60z" />
<glyph unicode="9" horiz-adv-x="688" d="M66 53q0 11 7.5 21t18.5 10q6 0 13 -3.5t10.5 -7t10 -10.5t7.5 -8q61 -80 131 -80q46 0 84 28.5t65.5 80.5t45.5 103t35 118q53 233 67 307q-51 -57 -113.5 -103t-117.5 -46q-87 0 -130.5 41.5t-43.5 105.5q0 50 36 125.5t98.5 137t123.5 61.5q60 0 109 -61.5t63 -149.5 q8 10 16 10q7 0 12 -2.5t7 -5.5t3 -8.5t1.5 -9t0 -9t-0.5 -6.5q-7 -159 -81 -430q-5 -17 -7 -26q-91 -330 -273 -330q-19 0 -47.5 6t-42.5 14q-40 25 -74 62t-34 65zM221 610q0 -34 30.5 -63t74.5 -29q27 0 57 13.5t62 40.5t51.5 45.5t48.5 48.5q0 30 -17.5 75.5t-50.5 84 t-69 38.5q-55 0 -121 -85.5t-66 -168.5z" />
<glyph unicode=":" horiz-adv-x="557" d="M205 57q0 16 12 31q16 8 41 8q26 0 40.5 -14.5t14.5 -34.5q0 -13 -12.5 -29t-30.5 -16q-30 0 -47.5 16t-17.5 39zM244 494q0 15 12 30q16 8 41 8q23 0 39 -14.5t16 -30.5q0 -19 -13 -34t-34 -15q-27 0 -44 17.5t-17 38.5z" />
<glyph unicode=";" horiz-adv-x="589" d="M205 -143q0 16 16.5 46t18.5 36q2 11 3.5 37t3.5 43.5t11.5 32t26.5 14.5q41 0 41 -41q0 -42 -26.5 -91.5t-51.5 -74.5q-19 -19 -33 -19q-10 7 -10 17zM274 461q0 16 15 31q17 10 41 10t39.5 -14t15.5 -33q0 -17 -13.5 -33t-33.5 -16q-28 0 -46 17.5t-18 37.5z" />
<glyph unicode="&#x3c;" horiz-adv-x="964" d="M131 537l541 526l112 -117l-419 -409l407 -412l-113 -115z" />
<glyph unicode="=" horiz-adv-x="862" d="M102 506q0 39 78 43q177 6 375 6q106 0 131 -2q23 0 42.5 -11t19.5 -24q0 -37 -58 -37q-9 0 -82.5 -3t-185.5 -3q-82 0 -145 -1.5t-93.5 -3t-33.5 -1.5q-21 0 -34.5 11.5t-13.5 25.5zM115 246q0 17 14.5 30t46.5 13q16 -2 47 -2q9 0 76.5 2t140.5 2q83 0 146 1.5t93.5 3 t35.5 1.5q20 0 32.5 -9.5t12.5 -23.5q0 -35 -82 -43t-308 -8h-55q-114 0 -141 2q-23 0 -41 9.5t-18 21.5z" />
<glyph unicode="&#x3e;" horiz-adv-x="964" d="M188 127l422 410l-409 411l114 115l527 -526l-541 -527z" />
<glyph unicode="?" horiz-adv-x="753" d="M188 39q0 22 25 31q10 10 29 10q28 0 46.5 -16t18.5 -37q0 -16 -13.5 -34t-33.5 -18q-26 0 -49 21t-23 43zM225 977q0 18 11 29q32 37 87 57t111 20q17 0 45 -4q104 -22 146.5 -75t42.5 -144q0 -61 -37 -121q-27 -47 -115 -95t-115 -75q-23 -21 -40.5 -56t-24.5 -60.5 t-17 -72.5t-14 -61q-14 -28 -29 -28q-16 0 -16 28q-1 23 12 97q6 114 76 184q22 22 59 45.5t67.5 42.5t60 44t46.5 61t17 81q0 62 -42.5 104t-115.5 42q-32 0 -78 -15.5t-79 -46.5q-9 -12 -29 -12q-12 0 -20.5 9.5t-8.5 21.5z" />
<glyph unicode="@" horiz-adv-x="1077" d="M98 336v512q0 78 46 155.5t125 129t165 51.5h236q65 0 124 -29.5t98.5 -76t63 -103.5t23.5 -111v-377q0 -66 -55 -119t-125 -53h-181q-63 0 -119.5 53.5t-56.5 116.5v183q0 70 53.5 121t118.5 51h205v34q0 55 -42 104.5t-93 49.5h-246q-67 0 -118.5 -58t-51.5 -122v-504 q0 -64 52.5 -125t117.5 -61h541v-158h-545q-138 0 -237 99t-99 237zM586 506q0 -17 18 -35t33 -18h137q18 0 33.5 17.5t15.5 35.5v145q0 19 -15.5 37.5t-33.5 18.5h-137q-17 0 -34 -19t-17 -37v-145z" />
<glyph unicode="A" horiz-adv-x="1024" d="M61 -29q0 14 59 146t116 250q-45 -5 -46 -5q-30 0 -44.5 9.5t-14.5 23.5q0 11 6.5 18t20.5 11t28.5 5t38.5 4t43 7q31 69 76.5 172t75.5 171.5t63.5 141t58 118.5t40.5 65q38 45 80 45q22 0 38.5 -14t25.5 -32.5t15.5 -49t8.5 -52t4.5 -54.5t3.5 -44q6 -64 20 -179.5 t23 -199.5l30 4q12 3 23 4q10 0 18.5 -7.5t8.5 -18.5q0 -20 -18 -30.5t-56 -16.5q8 -138 20 -256.5t19.5 -175t7.5 -58.5q-3 -22 -31 -22q-10 0 -18 6t-13.5 19t-9.5 25.5t-6.5 32.5t-4 33t-3 33.5t-2.5 28.5l-31 320q-38 -7 -149.5 -25t-192 -32.5t-80.5 -18.5 q-24 -55 -53.5 -119.5t-44 -96.5t-31 -71t-30.5 -74q-18 -45 -35 -57q-14 -10 -33 -10q-25 0 -25 26zM348 453q252 39 340 55l41 8q-13 179 -51 496q-6 51 -31 51q-12 0 -35.5 -37.5t-61.5 -118t-71 -155.5t-87 -198q-29 -67 -44 -101z" />
<glyph unicode="B" horiz-adv-x="1003" d="M0 106q0 19 16 19q15 0 72.5 -23.5t99.5 -27.5q37 103 79 226.5t59 170.5q-31 0 -31 16q0 14 16 28t39 22q39 118 81 227t71 199q-8 -4 -26.5 -14t-26.5 -14t-22.5 -11.5t-22 -10.5t-18.5 -7t-19 -5.5t-15 -1.5q-10 0 -17 6t-7 15q0 27 53 56.5t201 80.5q109 37 161 37 q49 0 99 -19q116 -42 116 -192q0 -57 -34 -127q-68 -133 -295 -191q20 4 57 4q87 0 129 -30q90 -58 90 -160q0 -52 -27 -98.5t-75.5 -83.5t-89.5 -60.5t-95 -48.5q-180 -82 -368 -82h-17q-37 -139 -90 -139q-22 0 -22 27q0 8 2 14q8 14 18 42t25 60q-88 16 -127 42t-39 54z M256 68h23q66 0 192 28q165 40 270 121.5t105 169.5q0 13 -4 33q-33 94 -215 94q-61 0 -136.5 -17t-95.5 -20q-77 -247 -139 -409zM424 559q183 52 250 80q183 77 215 199q6 27 6 53q0 71 -51.5 108t-104.5 37q-73 0 -157 -41q-138 -386 -158 -436z" />
<glyph unicode="C" horiz-adv-x="1097" d="M102 379q0 157 111 342q94 158 209.5 235.5t220.5 77.5q79 0 152 -38.5t73 -86.5q0 -16 -16 -16q-19 0 -45 22q-74 56 -160 56q-119 0 -241 -111l-7.5 -7.5l-12 -12t-16 -16.5t-19.5 -21.5t-21 -25.5t-23 -30.5t-23.5 -35.5t-23.5 -41q-84 -151 -84 -303q0 -46 7.5 -87 t30.5 -85.5t60 -76.5t100.5 -52.5t147.5 -20.5q253 0 467 178q68 59 86 62q23 0 23 -19q0 -28 -54 -82q-55 -46 -99 -75.5t-110 -62.5t-147.5 -49.5t-177.5 -16.5q-105 0 -185 32t-128 88t-71.5 126.5t-23.5 152.5z" />
<glyph unicode="D" horiz-adv-x="1056" d="M10 14q0 19 16.5 25t52.5 7t54 5q47 146 112 339t117 343t58 170l35 113q-36 -9 -115.5 -41.5t-99.5 -32.5q-33 5 -37 37q0 21 67 46q11 5 17 7q202 74 334 74q167 0 281 -84t132 -256q2 -16 2 -53q0 -203 -135 -381q-52 -68 -107 -113.5t-151 -95.5 q-114 -60 -218.5 -88.5t-242.5 -42.5q-2 -7 -9 -27.5t-11 -30.5t-10 -23.5t-14 -19.5t-17 -6q-11 0 -19 9t-8 24q0 19 19 68q-10 -2 -29 -2q-74 0 -74 30zM207 57q129 15 234 44t204 94q145 84 234.5 226t89.5 302q0 138 -99 226.5t-254 88.5q-40 0 -84 -6 q-22 -79 -129 -402t-196 -573z" />
<glyph unicode="E" horiz-adv-x="995" d="M92 31q0 18 19 29t75 20l2 2q0 1 1 4t1 4l95 393h-13q-7 0 -12.5 4.5t-5.5 10.5q0 31 45 45l76 307q7 38 25.5 107.5t21.5 89.5l2 2h-2q-40 -7 -90 -13q-31 0 -31 21q0 11 6 17.5t42.5 17.5t107.5 20q50 7 157 14t136 7q98 0 145 -15q2 -1 12.5 -3t17 -4t12.5 -7.5 t7 -13.5q0 -29 -53 -29q-21 0 -73 5t-81 5q-117 0 -229 -18q-13 0 -19 -11.5t-28 -100t-60 -255.5q-18 -79 -28 -125l2 -2q4 2 20 2l19 4q41 5 108 10t110 7t48 2h2q27 2 84 2q96 0 96 -27q0 -10 -11.5 -16.5t-40.5 -11t-57.5 -7t-83 -7t-98.5 -9.5h-16q-30 -3 -107.5 -13 t-95.5 -10v-2q-61 -255 -98 -389v-2l20 2q72 9 232.5 32.5t249.5 33.5q5 1 15 2.5t18 2.5t14 1q67 0 67 -37q0 -25 -100 -25q-9 -5 -44 -8t-40 -4h-14q-66 -13 -181 -25.5t-159 -19.5q-91 -18 -94 -18q-25 -90 -52 -90q-8 0 -16 9t-8 23q0 11 8 39v4l-2 -2q-40 -8 -51 -8 t-18 9t-7 18z" />
<glyph unicode="F" horiz-adv-x="776" d="M102 -27q0 15 13 58.5t16 58.5l92 383q-30 0 -30 21q0 27 47 43l71 299q14 61 47 192q-43 6 -43 31q0 10 4 17.5t22.5 15.5t51.5 12q90 10 195.5 21t171 17t69.5 7h19q31 0 31 -14q0 -25 -68 -43l-174 -33l-207 -27q-7 -26 -119 -479q27 0 104.5 8.5t138 14.5t60.5 2 q13 0 42 1t44 1q93 0 93 -31q0 -10 -14 -16.5t-44 -10.5t-60.5 -6.5t-81 -6t-87.5 -7.5q-22 -2 -70.5 -8.5t-88 -11.5t-54.5 -5q-81 -341 -104 -416q-37 -120 -62 -120q-8 0 -16.5 8.5t-8.5 23.5z" />
<glyph unicode="G" horiz-adv-x="1081" d="M100 375q0 168 111 346q65 106 145 179t151 103.5t136 30.5q82 0 154.5 -38.5t72.5 -88.5q0 -16 -18 -16q-23 0 -45 16q-74 56 -162 56q-120 0 -239 -113q-69 -61 -140 -186q-90 -157 -90 -299q0 -43 7 -83t28.5 -85t56 -77t95 -53.5t139.5 -21.5q81 0 158.5 33.5 t132.5 85.5t90 114.5t39 120.5q0 35 -7 52q-134 -41 -243 -41q-20 0 -41.5 3t-47 10.5t-41.5 23t-16 36.5q0 47 54.5 69.5t119.5 22.5q24 0 99 -6q100 -13 149 -57q3 1 12.5 4.5t21.5 6.5t24 3q34 0 34 -22q0 -8 -11.5 -14t-55.5 -23q5 -17 8 -49q0 -53 -23 -113t-68 -117.5 t-104.5 -104t-139 -75t-165.5 -28.5q-96 0 -171 34t-119.5 91t-67.5 125.5t-23 144.5zM588 489q0 -18 35 -18h24q40 0 99.5 6.5t99.5 13.5l39 7q-54 30 -164 30q-49 0 -91 -10.5t-42 -28.5z" />
<glyph unicode="H" horiz-adv-x="1075" d="M102 451q0 13 5 20.5t20.5 11t30.5 4t47 0.5q12 41 32.5 110.5t33 111.5t30 98.5t31 90.5t29 67t29.5 48t28 15q18 0 18 -27q0 -2 -4.5 -21t-14.5 -55.5t-22 -70.5q-16 -44 -27.5 -80.5t-28.5 -94t-36 -116.5q-5 -15 -11.5 -41t-10.5 -37q8 -2 22 -2q24 0 86.5 2t95.5 2 q43 1 188.5 7t196.5 6q20 70 60.5 216t66.5 226q0 1 3 11.5t4.5 15t5 16t6.5 18t7 16t9 15.5t10.5 12t12.5 8.5t14 2.5h6q21 -8 21 -27q0 -3 -1 -9t-1 -9q-1 -25 -58.5 -210t-60.5 -200q-25 -87 -55.5 -193.5t-51.5 -180t-43 -142.5q-11 -35 -15.5 -47.5t-16 -40t-23 -38.5 t-25.5 -11q-8 0 -16 6.5t-8 19.5q0 27 22 88q20 60 50.5 175t56.5 194q-17 0 -25 -2l-340 -10q-56 0 -135.5 -3t-89.5 -3q-54 -205 -59 -314q0 -11 1 -22.5t2.5 -21.5t3.5 -20.5t4 -19t4 -16t4 -13.5t3.5 -10t2.5 -6l1 -2q0 -12 -30 -12q-35 0 -52.5 38t-17.5 97 q0 103 57 320q-41 0 -61.5 12t-20.5 27z" />
<glyph unicode="I" horiz-adv-x="524" d="M102 10q0 19 61.5 182t96.5 248q65 166 199 490q4 11 12 31.5t13 33t12.5 30t13.5 28t13 21t14 15.5t14 5q4 0 12 -4q12 -9 12 -27q0 -17 -4.5 -32.5t-16 -42t-13.5 -30.5q-49 -118 -178.5 -445t-167.5 -433q-3 -7 -15 -40.5t-24 -52t-25 -18.5q-29 0 -29 41z" />
<glyph unicode="J" horiz-adv-x="935" d="M41 244q0 47 31 49q2 0 6 -1t13.5 -11.5t14.5 -30.5q11 -43 28 -81t44 -76t67 -60.5t89 -22.5q231 0 319 420l66 389q5 29 26 152h-4q-231 -15 -282 -15q-55 0 -82 16t-27 36q0 18 23 18q12 0 47 -5t57 -5q72 0 157.5 7.5t96.5 8.5q78 3 178 13t135 12h15q41 0 41 -17 q0 -22 -32 -30.5t-105 -15.5q-9 -1 -13 -1l-123 -12q-4 -23 -114 -580q-36 -183 -94.5 -278t-135.5 -141q-71 -43 -141 -43q-111 0 -206 95t-95 210z" />
<glyph unicode="K" horiz-adv-x="962" d="M102 -45q0 16 19 86q17 64 46 190t48 203q-35 44 -35 64q0 32 64 65q12 58 28.5 139.5t28 137.5t25.5 114q0 2 5 24t8.5 33.5t10.5 29t18 26t25 8.5q6 0 10 -1.5t6.5 -5t4 -6t2 -8t0.5 -8.5v-9v-7q0 -24 -41 -203t-45 -204q161 113 262 178q51 32 117.5 80.5t103 72 t53.5 23.5q10 0 21.5 -7.5t11.5 -23.5q0 -18 -25 -35q-25 -16 -137.5 -93t-193.5 -130q-138 -90 -234 -164l-16 -73q55 -71 97.5 -116.5t141.5 -133.5q46 -41 98.5 -71t97.5 -44.5t80.5 -22.5t61.5 -11l25 -3q6 -3 6 -10q0 -13 -16.5 -25t-44.5 -12h-7q-98 0 -223 76 q-168 96 -338 287l-71 -295q-1 -2 -4 -16t-4.5 -20l-5 -20t-6.5 -22l-7.5 -20t-8.5 -18.5t-9.5 -14t-11.5 -10.5t-13 -3q-8 0 -18.5 8t-10.5 21z" />
<glyph unicode="L" horiz-adv-x="1001" d="M115 74q0 33 14 84q76 250 146 456t83 246q12 39 20.5 61.5t22 52t28.5 44t32 14.5q11 0 22 -6.5t11 -21.5q0 -10 -5 -23.5t-16.5 -36t-17.5 -35.5q-27 -58 -50 -122.5t-53 -163.5t-49 -154q-11 -33 -41 -120t-49 -146q-2 -8 -8.5 -27t-10.5 -35.5t-4 -29.5 q0 -20 9.5 -34t29.5 -14q19 0 109.5 19.5t189 43t115.5 26.5q168 35 209 41q40 8 70 8q34 0 34 -19q0 -12 -22.5 -24t-65.5 -24.5t-86 -22.5t-106 -24t-103 -24q-22 -6 -81.5 -21.5t-90 -23.5t-79 -17.5t-89.5 -14.5q-10 -2 -30 -2q-88 0 -88 90z" />
<glyph unicode="M" horiz-adv-x="1413" d="M100 -12q0 10 9 28q71 176 313 715l57 129q38 84 84.5 144.5t93.5 60.5q41 0 52 -57.5t16 -243.5q1 -17 2.5 -103t3.5 -135v-34q0 -138 27 -138q18 0 56 75q7 13 11 20q133 255 281 512q61 100 121 100q30 0 45.5 -22.5t15.5 -77.5q0 -81 -28 -267l-35 -270l-6 -43 q-19 -147 -27 -277q0 -143 -49 -143q-29 0 -29 62q0 41 78 677q10 80 14 105q19 131 19 153q0 21 -13 21q-20 0 -87.5 -114t-153.5 -287q-29 -59 -84 -155t-92 -134q-25 -25 -54 -25q-31 0 -49 26t-24 97q0 3 -1 13.5t-1 17.5q-9 83 -9 174v33q0 342 -20 342q-10 0 -30 -25 t-34 -55q-41 -84 -172 -398q-66 -153 -94 -213q-52 -110 -86 -188q-56 -133 -90 -133q-31 6 -31 33z" />
<glyph unicode="N" horiz-adv-x="1107" d="M80 -4q0 8 4 20l88 308q16 55 47 159.5t57 194.5t50 174q0 2 2 7t2 7q10 39 18.5 64.5t23 60t33.5 52.5t41 18q42 0 69.5 -80.5t98.5 -384.5l29 -121q30 -130 69.5 -249.5t55.5 -119.5q8 0 16.5 11t18.5 36.5t15 40.5t16 50q5 15 42 127.5t56 175.5q93 283 127 403 q6 30 21 56t38 26q13 0 22 -9t9 -17q0 -18 -12 -50l-7 -22q-3 -14 -55 -166q-37 -102 -102 -319q-80 -257 -119 -351q-12 -33 -36.5 -60.5t-51.5 -27.5q-24 0 -41.5 12.5t-33.5 50t-22.5 56.5t-22.5 79q-3 11 -5 17q-5 26 -8 35l-86 336q-77 294 -82 313q-3 13 -10 26 t-13 13q-15 0 -141 -452q-2 -6 -14 -54q-8 -29 -80 -256q-16 -46 -43 -141q-15 -64 -31 -80q-10 -10 -24 -10q-12 0 -20.5 12t-8.5 29z" />
<glyph unicode="O" horiz-adv-x="1161" d="M102 334q0 174 136 375q71 106 135.5 181t111 110.5t78 50t53.5 14.5q33 0 73 -30.5t44 -82.5q53 21 113 21q195 0 264 -185q10 -33 10 -79q0 -78 -34.5 -181.5t-94.5 -191.5q-46 -66 -103 -126.5t-129 -115.5t-158.5 -88t-172.5 -33q-47 0 -90 10t-87 35.5t-76 65 t-52.5 104t-20.5 146.5zM172 322q0 -79 23.5 -136t65 -87t88.5 -43t104 -13q48 0 82 10q52 14 111.5 46.5t124 86.5t120 120.5t98.5 156.5t60 186q4 24 4 47q0 94 -54 153.5t-137 59.5q-46 0 -96 -16q-61 -21 -83.5 -34t-51.5 -42q-14 -14 -27 -14q-24 0 -24 28 q0 15 11 31.5t23 25.5l11 9q51 31 71 39q-3 3 -16 19t-23.5 23t-23.5 7q-36 0 -89 -31t-89 -65q-8 -7 -29.5 -31.5t-60.5 -78t-76 -113.5q-54 -88 -85.5 -179.5t-31.5 -164.5z" />
<glyph unicode="P" horiz-adv-x="755" d="M82 -90q0 12 5 30t16.5 48.5t15.5 44.5q22 69 70 210.5t67 200.5q-8 -2 -20 -2q-18 0 -40 11t-22 22q0 23 111 49q25 78 55 164.5t48.5 140.5t23.5 70l18 62q-38 -18 -94 -60q-15 -12 -36.5 -36t-36.5 -38t-27 -14q-9 0 -16 2.5t-11.5 6t-7.5 8.5t-4.5 9t-2.5 8t-1 5v2 q0 31 75 78q12 7 60 41.5t82 50.5q101 49 215 49q101 0 167 -45.5t66 -122.5q0 -61 -30 -116t-73.5 -92.5t-105.5 -73.5t-114 -57.5t-111.5 -46t-85.5 -38.5l-184 -547q-10 -29 -23.5 -46t-24.5 -17q-8 0 -16 10.5t-8 28.5zM362 553q258 91 359 219q51 63 51 125 q0 54 -38 87.5t-105 33.5q-51 0 -115 -21q-35 -111 -152 -444z" />
<glyph unicode="Q" horiz-adv-x="1148" d="M98 319q0 169 133 367q73 109 114.5 157t100.5 101q89 84 150 84q31 0 59 -16q24 23 74 39t94 16q211 0 260 -287q4 -40 4 -69q0 -217 -124 -389q-46 -64 -82 -105q27 -32 72.5 -83.5t70.5 -82.5q14 -19 31 -53q0 -14 -21 -14q-24 0 -59.5 32.5t-140.5 151.5 q-203 -197 -410 -197q-43 0 -85.5 9.5t-87 35t-78 63.5t-54.5 100t-21 140zM176 317q0 -136 77 -207t189 -71q48 0 82 10q50 15 122 59.5t140 108.5q-111 111 -118 127q-15 22 -15 47q0 39 31 39q20 0 43 -29l111 -133q161 178 182 373q2 20 2 64q0 77 -19 143t-68 115 t-122 49q-16 0 -57 -10.5t-66 -22.5q23 -44 23 -64q-2 -16 -15 -16q-16 0 -39 25.5t-45 25.5q-35 0 -80 -27t-79 -59q-106 -106 -176 -219q-103 -165 -103 -328z" />
<glyph unicode="R" horiz-adv-x="956" d="M102 -78q0 13 6 31.5t16.5 47t16.5 46.5l117 352q-43 62 -43 88q0 19 14.5 28t79.5 34l123 366l19 62q-37 -19 -95 -62q-16 -13 -36 -36.5t-35 -37.5t-27 -14q-9 0 -16 2.5t-11.5 6.5t-8 9t-5.5 9t-3 8.5t-1 5.5v2q0 34 72.5 86t176.5 91.5t183 39.5q103 0 169.5 -45 t66.5 -122q0 -45 -21 -88.5t-52 -78.5t-80 -70t-92 -59.5t-100 -51t-93 -41t-83 -31.5q-4 -14 -28 -84q55 -81 125.5 -151t177.5 -144q113 -80 223 -92q9 -1 20 0t23.5 0t16.5 -4q8 -3 8 -11q0 -11 -17 -24t-45 -13q-111 0 -229 76q-173 105 -330 285q-11 -34 -36 -113 t-41 -126t-36.5 -103t-36.5 -83.5t-28 -27.5q-7 0 -16 10.5t-9 26.5zM387 573q71 25 133.5 54.5t128.5 72t105 97.5t39 114q0 54 -38.5 88.5t-107.5 34.5q-51 0 -112 -20q-47 -149 -148 -441z" />
<glyph unicode="S" horiz-adv-x="1069" d="M61 186q0 8 8 13.5t21 5.5q16 0 34 -8.5t38.5 -22t25.5 -16.5q91 -60 198.5 -91.5t207.5 -31.5q82 0 153 23.5t118.5 73.5t47.5 116q0 40 -18 71.5t-44.5 51.5t-72 37t-86 26.5t-100.5 20.5q-86 15 -141 27t-104.5 29.5t-76.5 39t-42 51.5t-15 70q0 78 56.5 150.5 t142.5 122t186 79t188 29.5q64 0 123 -19l5 -2q6 -2 15 -6.5t18 -10t15.5 -13.5t6.5 -17q0 -18 -17 -18q-11 0 -31.5 6.5t-35.5 9.5q-49 8 -105 8q-117 0 -239 -51q-44 -19 -83 -41t-80.5 -54.5t-66 -74t-24.5 -86.5q0 -58 46 -88.5t144 -50.5q195 -39 273 -65 q237 -80 237 -230q0 -113 -109 -196t-296 -83q-50 0 -103 6q-54 7 -131.5 32.5t-128.5 51.5q-158 78 -158 125z" />
<glyph unicode="T" horiz-adv-x="784" d="M164 1026q0 29 31 29q6 0 64.5 -8.5t78.5 -8.5q81 0 315.5 1t302.5 1q54 0 54 -18q0 -42 -152 -45l-233 -4q-2 -12 -13 -33q-5 -13 -66.5 -188t-138.5 -394.5t-114 -320.5q-14 -40 -32 -62t-32 -22q-28 0 -28 27q1 11 7.5 29.5t17 46t16.5 44.5l256 725q49 139 53 148 h-12q-29 0 -82 -2t-76 -2q-89 0 -137.5 7t-64 18.5t-15.5 31.5z" />
<glyph unicode="U" horiz-adv-x="1044" d="M123 348q0 25 3 56t6 54.5t11 64t12 60t15 69.5t14 65q8 39 37 144.5t41 135.5q2 4 5.5 15.5t6.5 17.5t8.5 14t14 11.5t20.5 3.5q25 0 25 -35q0 -18 -10 -53q-74 -250 -106.5 -392t-32.5 -239q0 -119 67 -201t172 -82q275 0 406 349q79 210 143 446q3 13 9 41.5t11.5 50 t13.5 45t19 36.5t25 13q16 0 25 -9t10.5 -18t1.5 -24q0 -7 -27.5 -109.5t-44.5 -158.5q-32 -104 -60 -183t-62.5 -159.5t-69 -137.5t-78 -108.5t-92 -83t-107.5 -49.5t-127 -18q-158 0 -244 131q-61 95 -61 237z" />
<glyph unicode="V" horiz-adv-x="913" d="M145 948v8q0 18 0.5 27.5t4 23t12.5 19.5t24 6q6 0 11 -3.5t9 -11.5t7 -15t6 -20t4.5 -20.5t4 -22t3.5 -19.5q9 -65 26.5 -172.5t48.5 -284t64 -296.5t56 -120q8 0 20 12q26 30 51 67t41.5 66t47.5 85t53 94q249 439 317 583q1 1 6 11.5t9.5 17.5t12.5 16t18.5 14t23.5 5 q12 0 21.5 -9t9.5 -16q0 -3 -10 -28q-11 -29 -94.5 -188t-104.5 -193q-29 -50 -80.5 -140t-79.5 -138.5t-64 -109t-63 -102.5q-56 -83 -86 -110q-34 -31 -65 -31q-18 0 -33 8.5t-28.5 29.5t-24 45.5t-22 66.5t-20.5 82t-20.5 103t-21.5 117.5t-25.5 137.5t-28.5 153 q-41 201 -41 252z" />
<glyph unicode="W" horiz-adv-x="1302" d="M102 127q0 80 24.5 212.5t68.5 266.5q27 82 78 207t69 152q22 35 41 39q13 0 26 -11t13 -37q0 -34 -39 -102q-8 -15 -27 -50t-27 -51.5t-26.5 -61.5t-40.5 -109q-36 -103 -63 -224.5t-27 -193.5q0 -80 37 -80q25 0 70 64t131 210q26 43 69 118t66.5 114.5t54.5 84.5 t55 65t45 20q20 0 39 -19q24 -25 30.5 -91t6.5 -244q0 -166 11.5 -253t41.5 -87q25 0 54 53q74 128 241.5 459.5t188.5 371.5q50 97 86 97q26 0 26 -23q0 -9 -4 -25q-7 -21 -95 -189.5t-97 -191.5q-49 -97 -93 -181t-96 -180t-71 -132q-13 -25 -19.5 -36.5t-24.5 -38 t-32.5 -40t-37.5 -25.5t-46 -12q-18 0 -28 2t-23.5 13t-21 32t-16 60t-12.5 97.5t-7 144t-3 198.5q0 43 -1 66.5t-3.5 37.5t-6 17.5t-9.5 3.5q-27 0 -80 -92q-204 -352 -276 -467q-28 -44 -58 -67t-74 -23q-37 0 -62.5 30.5t-25.5 100.5z" />
<glyph unicode="X" horiz-adv-x="1118" d="M49 10q0 9 17 31.5t34 40.5l17 18q99 102 186 211l189 236l-29 39q-190 255 -221 305q-31 56 -31 82q0 13 8.5 22t20.5 9q25 0 77 -84q46 -72 175 -242l51 -68q59 71 134 172.5t120 157.5q2 2 11 14t14 18t15 17.5t17 18t15.5 14t16.5 11t15 3.5q12 0 19.5 -8t7.5 -16 q0 -11 -8 -23q-7 -12 -32.5 -45.5t-71 -92.5t-68.5 -89l-97 -125q-40 -54 -69 -88q15 -19 118 -156t166 -209q95 -104 140 -159q10 -13 10 -23q0 -9 -10 -17t-23 -8q-14 0 -26.5 7.5t-17.5 13t-26 29.5q-232 267 -378 460q-209 -265 -336 -413l-6 -6q-69 -84 -107 -84 q-14 0 -25.5 7t-11.5 19z" />
<glyph unicode="Y" d="M164 1028q0 14 8.5 29.5t22.5 15.5q10 0 23 -13t22.5 -26.5t21 -33t12.5 -21.5q127 -219 228 -334q40 59 94 149t90 146q1 1 13.5 21.5t27 42t33.5 45t39.5 38.5t38.5 15q26 -4 26 -19t-33 -59q-60 -82 -154 -224.5t-134 -219.5q10 -19 10 -35t-11.5 -26t-21 -12.5 t-14.5 -2.5q-32 -71 -91.5 -189t-74.5 -157q-13 -39 -59 -131q-25 -84 -64 -84q-10 0 -17 9t-7 21q0 58 270 594l-103 146q-29 38 -94 133t-82 127q-20 24 -20 55z" />
<glyph unicode="Z" horiz-adv-x="997" d="M104 -2q3 35 197 287q143 188 255 345.5t134 196.5q16 41 7 48q-5 4 -17 2q-20 -2 -88 -13t-107 -16q-128 -20 -256 -33q-30 -6 -54 -0.5t-39 14.5t-15 15q0 18 14 24.5t55 13.5q12 3 19 5q101 20 276 41q111 10 252 28q7 1 14 1q27 -1 43 -13q22 -16 9 -53 q-20 -58 -127 -207q-165 -237 -297 -422q-2 -2 -68 -93.5t-88 -123.5q-10 -15 -10 -25q0 -17 28 -20q21 -2 60 2q121 10 289 35q52 6 147.5 20.5t128.5 18.5q37 6 58 6q17 0 24 -4q8 -4 8 -14q0 -6 -4 -15q-6 -11 -20 -22q-11 -11 -58 -23q-24 -4 -224 -27.5t-224 -25.5 q-22 -2 -73.5 -8.5t-95.5 -10.5t-73 -4q-40 0 -62 22q-19 19 -18 42v6z" />
<glyph unicode="[" horiz-adv-x="724" d="M238 -160v1491h331v-160h-159v-1171h159v-160h-331z" />
<glyph unicode="\" horiz-adv-x="796" d="M102 885q0 7 4.5 17.5t12.5 10.5q7 0 20 -15t28 -36.5t19 -25.5q26 -42 104 -171t148 -241q53 -78 114.5 -187t96.5 -159q45 -65 45 -88v-4q-1 -5 -4.5 -8.5t-6.5 -3.5l-3 -1q-9 2 -17.5 8.5t-18 18t-15.5 20.5t-16 25t-15 23q-49 74 -137.5 220t-138.5 226 q-9 20 -109.5 175t-108.5 177q-2 6 -2 19z" />
<glyph unicode="]" horiz-adv-x="724" d="M164 0h160v1171h-160v160h332v-1491h-332v160z" />
<glyph unicode="^" horiz-adv-x="575" d="M102 337v3q0 21 57 79.5t115 108.5q16 13 23 13h6q7 0 79 -66t105 -104q13 -16 13 -31q0 -14 -13 -14q-11 0 -33 16.5t-58 49t-48 42.5q-37 37 -45 37q-19 -6 -61 -43q-17 -14 -36.5 -31t-32 -28t-24.5 -21t-19.5 -15t-10.5 -5q-7 0 -11.5 3t-5.5 6z" />
<glyph unicode="_" horiz-adv-x="997" d="M-4 -264q0 34 78 41q40 3 294 6.5t392 3.5q174 0 213 -8q53 -14 53 -33t-41 -22q7 0 -222 -8t-467 -16.5t-253 -8.5q-17 0 -32 14t-15 31z" />
<glyph unicode="`" horiz-adv-x="331" d="M80 692q0 9 9.5 15t21.5 6q23 0 96.5 -60.5t73.5 -72.5q0 -9 -15 -9q-10 0 -16 2q-36 10 -103 55t-67 64z" />
<glyph unicode="a" d="M0 70q0 61 46 130t115 115.5t130 46.5q84 0 127 -65h6q36 0 51 -35q10 -24 17 -61q15 -62 59.5 -109t103.5 -47q30 0 62.5 11.5t53 23.5t22.5 12q12 0 12 -14q0 -34 -53 -55t-95 -21q-52 0 -93 18.5t-65 45t-41.5 53t-32 45t-26.5 18.5q-13 0 -31 -23t-40.5 -55.5 t-50.5 -64.5t-71 -55t-93 -23q-53 0 -83 28.5t-30 80.5zM72 80q0 -27 15 -43.5t42 -16.5q32 0 66.5 28t57.5 60.5t52 78.5t41 61q-30 51 -67 51q-63 0 -135 -78t-72 -141z" />
<glyph unicode="b" horiz-adv-x="1046" d="M-25 242q0 9 13.5 12.5t33 3.5h21.5q54 4 132.5 43t139.5 82q3 8 22.5 64.5t32 88.5t37.5 97t45.5 107.5t49.5 100.5t56.5 95.5t59 73.5t65.5 53.5t67 17.5q43 0 68.5 -31t25.5 -75q0 -3 -1 -9.5t-1 -9.5q-5 -40 -20 -79t-43 -80.5t-46.5 -65t-54.5 -67.5 q-167 -197 -313 -312q-17 -44 -29 -107t-12 -110q0 -43 20.5 -75.5t61.5 -32.5q142 0 280 282q9 17 17 38t17.5 47.5t14.5 39.5q16 41 45 41q32 0 51.5 -27.5t27.5 -63t30 -77t57 -63.5q30 -19 80.5 -24.5t56.5 -8.5q4 -2 4 -8q0 -13 -16 -20t-31 -7q-150 0 -237 148 q-2 2 -9.5 16.5t-7.5 15.5v4q-23 -47 -33 -67t-38 -71t-47.5 -78t-52 -67t-61.5 -61t-66.5 -37t-75.5 -16q-72 0 -111 48.5t-39 121.5q0 70 29 170q-164 -96 -254 -96q-18 0 -40 10t-22 25zM397 444q68 63 190 203.5t150 198.5q29 64 29 100q0 53 -37 53q-42 0 -86 -61 q-52 -69 -128.5 -226t-117.5 -266v-2z" />
<glyph unicode="c" horiz-adv-x="440" d="M20 174q0 53 28 117.5t79 114t106 49.5q32 0 71.5 -20t39.5 -48q0 -10 -12 -10q-9 0 -31 15.5t-47 15.5q-62 0 -114 -83.5t-52 -150.5q0 -55 37.5 -92t93.5 -37h29q44 0 93 22.5t81 45t35 22.5q8 0 8 -12q0 -40 -47.5 -69t-101.5 -40.5t-99 -11.5q-76 0 -136.5 48.5 t-60.5 123.5z" />
<glyph unicode="d" horiz-adv-x="933" d="M41 100q0 61 43 120.5t107 95.5t124 36q43 0 84 -28.5t54 -69.5q16 20 41 57t32 47v39q0 55 17.5 150.5t51.5 207t77 210.5t101.5 165t117.5 66q33 0 50 -21t17 -55q0 -47 -22.5 -113t-41.5 -104.5t-66 -121.5t-52 -93q-5 -9 -62 -117.5t-91 -160.5l-45 -68 q14 -95 41 -153t94 -101q42 -26 75 -33q3 0 5 -2q28 -4 45 -4q21 0 55.5 9.5t38.5 9.5q14 0 14 -11q0 -27 -41.5 -40t-77.5 -13q-77 0 -146 44t-108 114q-24 44 -38 117q-93 -127 -139 -176q-120 -128 -226 -128q-56 0 -92.5 35t-36.5 90zM111 109q0 -31 18 -49.5t49 -18.5 q41 0 83 24t70 51.5t62 64.5q7 8 10 12l3 2q-5 40 -32 65t-67 25q-66 0 -131 -55.5t-65 -120.5zM578 438l106 183q31 53 107 200q1 2 16 28.5t20 36t18 35t19 40.5t14 36t11.5 38t3.5 32q0 41 -33 41t-70 -50t-68.5 -127.5t-50 -131t-32.5 -99.5q-53 -168 -61 -262z" />
<glyph unicode="e" horiz-adv-x="593" d="M-25 203q0 14 33 14q72 0 172 21q2 2 2 8q18 80 86 147.5t146 67.5q44 0 78 -24t34 -66q0 -17 -12 -45q-7 -15 -27 -29.5t-40 -25t-53.5 -23.5t-51.5 -19t-52 -16.5t-38 -11.5q-12 -4 -16 -4v-19q0 -61 35.5 -94.5t97.5 -38.5h2q116 0 192 55q2 1 12.5 9.5t19.5 16 t11 7.5q12 0 12 -14q0 -28 -33.5 -53t-67 -37t-64.5 -19q-39 -8 -84 -8q-81 0 -139 49.5t-58 128.5q-79 -14 -137 -14q-18 0 -39 10t-21 27zM250 254q53 11 122.5 46t69.5 71q0 26 -41 26q-50 0 -93 -45t-58 -98z" />
<glyph unicode="f" horiz-adv-x="815" d="M-102 39q0 8 13.5 11t32.5 3h21q60 5 136 42.5t139 84.5q-9 18 -9 39q0 24 13.5 36.5t36.5 12.5q21 0 49 -12l2 -2l37 33q141 451 344 626q59 52 121 52q45 0 73.5 -29t28.5 -74q0 -51 -27.5 -109.5t-64 -106t-99 -108.5t-104 -96t-109 -90t-86.5 -71l-26 -23 q-3 -15 -17 -57q76 -57 168 -97.5t172 -40.5q37 0 72 3q2 0 6.5 1t7.5 1q5 0 12 -3.5t7 -7.5q0 -19 -17.5 -29t-37.5 -10q-122 0 -218 27t-188 94l-12 -45q54 -71 89 -121t83 -128.5t73 -151.5t25 -137q0 -88 -50.5 -155t-133.5 -67q-56 0 -97.5 28.5t-64 75t-33 96 t-10.5 101.5q0 191 57 441q-37 42 -45 55q-8 -4 -66.5 -39t-83 -47t-70.5 -27.5t-83 -15.5q-22 0 -44.5 9t-22.5 28zM313 -332q0 -39 7 -81.5t23 -87t48.5 -73t75.5 -28.5q57 0 86 51t29 113q0 176 -224 458l-4 -18q-41 -223 -41 -334zM317 168q6 -9 15 -18l6 26l-6 4z M449 356q112 96 186.5 169.5t152.5 172.5q22 29 32.5 43t24 42t13.5 51q0 45 -33 45q-52 0 -115.5 -63t-115.5 -152.5t-90.5 -172.5t-54.5 -135z" />
<glyph unicode="g" horiz-adv-x="843" d="M-61 -748q1 89 50 184t122 175q131 145 240.5 240.5t168.5 132.5q2 20 2 59q0 112 -35 115q-19 0 -43 -15q2 -6 7 -39q0 -21 -10.5 -39t-24.5 -18q-5 0 -8.5 1.5t-5.5 5.5t-3 8t-1.5 11t-0.5 11v12.5v12.5q-10 -8 -49.5 -40.5t-59.5 -46.5t-53.5 -29.5t-60.5 -15.5 q-160 0 -160 132q0 114 84.5 215.5t159.5 101.5q37 0 68.5 -22.5t53 -58.5t35 -67.5t21.5 -62.5q28 21 64 21q26 0 41 -16.5t23.5 -66t8.5 -139.5q11 6 61 33.5t75.5 40t63.5 26t63 13.5q13 0 22 -6q10 -7 10 -15q0 -11 -8 -20t-15.5 -12.5t-19.5 -7.5l-12 -3 q-149 -46 -240 -100q0 -89 -26 -215q-50 -238 -137 -401q-28 -52 -52 -90t-61 -82.5t-81 -70t-93 -28.5q-81 0 -132.5 48t-51.5 128zM2 -735q0 -51 28 -86t83 -35q87 0 153 82q108 140 175 322t77 380q-106 -74 -264 -241q-131 -139 -191.5 -234t-60.5 -188zM88 127 q0 -80 84 -80q21 0 43.5 7t38.5 14.5t39 25.5t33.5 27t35 32t31.5 29q-7 33 -22.5 67.5t-47 66.5t-69.5 32q-51 0 -108.5 -71t-57.5 -150z" />
<glyph unicode="h" horiz-adv-x="1112" d="M-102 37q0 6 8 10q1 1 26 3t57 6.5t48 9.5q59 20 133 70.5t131 103.5v8q0 132 38 289t99 270q30 54 74.5 100.5t91.5 46.5q29 0 46.5 -25t21.5 -51.5t4 -56.5q0 -128 -67 -267t-165 -249q-11 -13 -39 -39.5t-40 -42.5v-9q1 -41 17 -99q18 -64 54 -64q25 0 55.5 27.5 t61.5 66.5t64 78t73 66.5t78 27.5q35 0 67.5 -27.5t58.5 -66.5t52.5 -78t60 -66.5t70.5 -27.5h7h10.5h11t11.5 -1t10 -2.5t7.5 -4t2.5 -6.5q0 -19 -26.5 -28t-49.5 -9q-38 0 -74 26.5t-63 64.5t-52 76t-52.5 64.5t-53.5 26.5q-28 0 -60.5 -28t-63 -68.5t-63 -81t-70.5 -68.5 t-75 -28q-39 0 -68.5 36t-42 74.5t-18.5 79.5q-77 -68 -172.5 -121t-173.5 -53q-18 0 -39.5 10t-21.5 27zM362 301q96 108 177.5 251.5t81.5 252.5q0 67 -35 67q-27 0 -55 -36t-48 -74q-54 -98 -86 -221t-35 -240z" />
<glyph unicode="i" horiz-adv-x="753" d="M-102 18q0 15 39 15q86 0 141 22q92 36 180 124t129 181q21 52 37 70q3 2 8 6t7.5 5.5t8 3t11.5 1.5q14 0 26 -12q15 -15 15 -55q0 -34 12 -100q35 -185 170 -185q20 0 47 9.5t41 9.5q8 0 8 -11q0 -26 -34.5 -37.5t-67.5 -11.5q-71 0 -124.5 44t-78.5 106t-27 131 q-27 -62 -88.5 -131.5t-124.5 -118.5q-126 -98 -260 -98q-23 0 -49 7t-26 25zM446 752q0 28 37 28q23 0 36 -23t13 -48q0 -12 -6.5 -21.5t-17.5 -9.5q-21 0 -41.5 26.5t-20.5 47.5z" />
<glyph unicode="j" horiz-adv-x="587" d="M-326 -745q0 85 48 183.5t116 174.5q204 225 430 369q0 5 1 16.5t1 17.5q-3 124 -24 244q-3 19 -16 63t-13 54q0 12 9 26.5t26 14.5q40 0 49 -74q9 -69 18 -332q33 18 101 51q5 2 22.5 11t25 12.5t24 11t26.5 11t23.5 8t25 6.5t21.5 2q14 0 22 -4q8 -5 8 -15 q0 -29 -57 -45q-164 -55 -242 -102q-7 -191 -44.5 -332t-114.5 -286q-140 -264 -299 -271q-93 0 -140 51t-47 134zM-256 -741q0 -54 25.5 -88.5t80.5 -34.5q80 0 156 82q110 117 178 307.5t80 398.5q-13 -8 -31.5 -22.5t-41 -33.5t-31.5 -26q-190 -150 -303 -306.5 t-113 -276.5zM102 754q0 10 9.5 20t31.5 10q16 0 35 -24.5t19 -50.5q0 -27 -23 -27q-14 0 -22 8q-18 8 -34 27t-16 37z" />
<glyph unicode="k" horiz-adv-x="1112" d="M-102 39q0 6 8 10t59 4q37 3 72 15q114 37 264 172v8q0 131 38 290t99 271q29 53 75 100t91 47q29 0 46.5 -25t21.5 -51.5t4 -56.5q0 -130 -66 -267.5t-166 -248.5q-4 -5 -23 -26t-32 -34.5t-24 -21.5q1 -22 4 -45.5t10.5 -55.5t22 -52.5t34.5 -20.5q24 0 55.5 28.5 t63.5 68.5t66 80.5t75.5 69t81.5 28.5q34 0 59 -24t25 -58q0 -33 -20 -55t-44 -29t-46 -12t-23 -7q-2 -4 -2 -6q0 -17 70 -47q100 -41 196 -41q19 0 57 2t56 2q31 0 31 -14q0 -33 -97 -33q-195 0 -325 74q-21 11 -39.5 31t-18.5 38q0 24 23.5 34.5t52.5 11t52.5 9.5t23.5 31 q0 12 -10 19.5t-23 7.5q-32 0 -66.5 -28.5t-66 -69t-64 -81t-70.5 -69t-75 -28.5q-39 0 -68.5 35t-42 75.5t-16.5 79.5q-10 -7 -57 -41.5t-70 -49t-64.5 -38t-77.5 -33.5t-71 -10q-13 0 -27 2.5t-28 11.5t-14 23zM362 301q98 107 182.5 250t84.5 252q0 25 -8.5 47t-30.5 22 q-48 0 -107 -108q-54 -98 -86 -222t-35 -241z" />
<glyph unicode="l" horiz-adv-x="706" d="M-102 20q0 13 22 13q104 0 158 22q128 51 270 224q-33 97 -33 182q0 122 52.5 260.5t130.5 236.5q87 107 159 107q45 0 68 -41.5t23 -89.5q0 -105 -71 -249t-159 -269q-6 -9 -20.5 -28t-20.5 -28q-38 -59 -61 -88q40 -98 106 -160.5t160 -62.5q2 0 14.5 1t24.5 1.5 t24.5 0t20.5 -4.5t8 -10q0 -20 -26 -27.5t-52 -7.5q-227 0 -325 217q-90 -107 -185.5 -170t-210.5 -63q-25 0 -51 7.5t-26 26.5zM381 465q0 -70 14 -127q2 5 9 12.5t8 9.5q59 76 117 164t109.5 202t51.5 189q0 70 -53 70q-22 0 -47 -18q-59 -41 -108.5 -134.5t-75 -192.5 t-25.5 -175z" />
<glyph unicode="m" horiz-adv-x="1204" d="M-25 274q0 23 48 56.5t81 46.5q35 14 62 14q47 0 70.5 -31.5t23.5 -78.5q0 -35 -19.5 -103.5t-19.5 -103.5q0 -15 12 -15q14 0 49 45t70.5 98.5t81 98.5t78.5 45q37 0 61.5 -41t34 -91t24.5 -91t36 -41q15 0 47 38.5t69.5 93.5t40.5 58q37 54 86 54q43 0 66 -37 q16 -25 27.5 -70.5t18.5 -78.5t32 -60.5t69 -30.5h13q15 0 41 8.5t39 8.5q12 0 12 -11q0 -24 -38 -38.5t-69 -14.5q-77 0 -112 47q-34 44 -60 133q-19 52 -28 58q-6 6 -17 6q-19 0 -43 -33q-7 -9 -42 -58t-61.5 -82t-45.5 -50q-25 -21 -56 -21q-46 0 -65 49 q-9 25 -29.5 88.5t-34.5 96.5q-15 36 -32 36q-19 0 -53 -43t-67.5 -95t-76 -95t-74.5 -43q-29 0 -44 21.5t-15 52.5q0 35 16.5 102.5t16.5 101.5q0 17 -1.5 27.5t-10 20.5t-23.5 10q-30 0 -91 -37t-77 -37q-21 0 -21 16z" />
<glyph unicode="n" horiz-adv-x="802" d="M-25 276q0 30 76 72.5t115 42.5q45 0 70.5 -30.5t25.5 -75.5q0 -32 -20.5 -101.5t-20.5 -99.5q0 -25 12 -25q2 0 5 1t4 1l12 13q18 18 71 92.5t102.5 128t84.5 53.5q55 0 88 -112q5 -18 11 -50t11.5 -51t16.5 -40t32.5 -32.5t53.5 -13.5h12q14 0 39.5 8.5t38.5 8.5 q12 0 12 -11q0 -24 -38 -38.5t-68 -14.5q-78 0 -113 47q-12 16 -23 38t-16.5 36t-15 45t-12.5 39q-22 65 -45 65q-19 0 -53 -43t-67.5 -95t-76 -95t-74.5 -43q-30 0 -44.5 22.5t-14.5 53.5q0 35 17.5 103.5t17.5 98.5q0 58 -37 58q-31 0 -91 -37t-77 -37q-7 0 -14 5.5 t-7 12.5z" />
<glyph unicode="o" horiz-adv-x="581" d="M20 106q0 118 107 246q35 43 80 76t86 33t62.5 -33t21.5 -76q59 -30 59 -102q0 -19 -4 -43q16 -6 72 -10q29 -2 74 -2q9 0 18.5 -5.5t9.5 -13.5q0 -9 -9 -17.5t-19 -8.5h-54q-60 0 -106 10q-32 -86 -105 -148.5t-163 -62.5q-62 0 -96 46.5t-34 110.5zM86 94 q0 -39 21.5 -61.5t60.5 -22.5q69 0 123 49t74 117q-51 15 -84 51t-33 76q0 31 22 47.5t54 16.5q-11 22 -31 22q-19 0 -47 -16q-65 -35 -112.5 -119.5t-47.5 -159.5zM303 293q0 -23 22.5 -44t49.5 -24q2 10 2 29q0 22 -17.5 40.5t-42.5 18.5q-14 0 -14 -20z" />
<glyph unicode="p" horiz-adv-x="690" d="M-123 -655q0 6 2.5 12.5t7 13.5t8 12t9.5 12.5t8 10.5q57 74 120 258t101 334q-19 4 -39 17t-20 30q0 14 16 14q3 0 57 -6q2 7 10.5 41t15 61.5t14.5 62t12.5 60.5t3.5 39q-7 -3 -30.5 -16.5t-42 -22t-28.5 -8.5t-17 8t-7 17q0 15 30 38.5t56 38t49 25.5q0 6 1 18.5 t1 18.5q0 16 -5 45t-5 43t13 28.5t28 14.5q43 0 43 -84q0 -27 -6 -51q118 49 229 49q47 0 83.5 -9t65.5 -38t29 -76q0 -50 -21.5 -96t-55 -79.5t-80 -64t-89.5 -50t-90 -35.5q-108 -37 -151 -37h-4q-78 -304 -217 -596q-42 -88 -72 -88q-13 0 -23 10.5t-10 24.5zM213 53 q84 5 197 58t157 116q47 63 47 115q0 38 -27 55t-67 17q-110 0 -250 -64q-1 -19 -22 -127q-17 -96 -35 -170z" />
<glyph unicode="q" horiz-adv-x="1132" d="M20 123q0 29 13 55q40 97 144 179.5t204 82.5q86 0 133 -96q10 28 28.5 52t41.5 24q28 0 39.5 -24.5t11.5 -55.5q0 -27 -15 -55.5t-28 -43t-41 -42.5q0 -6 2 -19.5t2 -19.5q0 -35 -20 -35q-17 0 -33 31l-4 -4q-118 -280 -197 -592q20 23 59 62.5t48 49.5q149 160 291 265 t323 178q85 35 106 35q10 0 19.5 -5.5t9.5 -15.5q0 -27 -55 -45q-218 -76 -372.5 -191t-334.5 -311q-7 -8 -38 -40.5t-49 -54t-34 -44.5q-2 -10 -9 -54t-13 -77.5t-14 -76t-16 -73.5t-15 -47q-10 -22 -33 -40.5t-45 -18.5q-30 0 -46.5 24.5t-16.5 55.5q0 34 13.5 75t45 93.5 t45 73.5t49.5 73q73 309 193 635q-54 -35 -127.5 -60.5t-132.5 -25.5q-54 0 -93 35t-39 88zM94 129q0 -32 19.5 -54t50.5 -22q51 0 140.5 38t135.5 75l37 94q-11 54 -34 87.5t-70 33.5t-113.5 -41.5t-116 -102t-49.5 -108.5zM121 -844q0 -16 14 -16q7 0 13 6.5t10.5 18.5 t8 24t7 29t5 27.5t3.5 25t2 16.5q-5 -12 -22.5 -40t-29 -52t-11.5 -39zM539 272q0 -8 4 -20q1 1 9 8.5t11 11.5t8.5 11t8 13t2.5 13t-4 14t-11 7q-8 0 -18 -24t-10 -34z" />
<glyph unicode="r" horiz-adv-x="837" d="M-25 254q0 27 38.5 61.5t66.5 34.5q21 0 34.5 -14t18 -41t5.5 -41.5t1 -40.5q0 -23 1 -67t1 -66q0 -29 15 -29q4 0 17 14.5t27 31.5t15 18q61 72 113 116q176 146 397 146q137 0 137 -51q0 -11 -14 -11q-13 0 -68 11q-25 4 -78 4q-154 0 -270 -76.5t-217 -218.5 q-45 -64 -76 -64q-21 0 -34 24t-17.5 62t-5 75.5t-0.5 74t-2 47.5q-4 22 -19 22q-12 0 -34.5 -20t-36.5 -20q-15 0 -15 18z" />
<glyph unicode="s" horiz-adv-x="823" d="M-25 213q0 6 12 11t30.5 9.5t19.5 4.5q110 37 204.5 98t204.5 156q-12 27 -12 53q0 61 48.5 124.5t107.5 63.5q29 0 47 -19t18 -48q0 -50 -49 -107q-18 -21 -82 -76l-4 -4q0 -2 2 -2q12 -13 27.5 -26t35 -29t29.5 -25q112 -92 134 -112q75 -65 75 -146q0 -70 -43.5 -124 t-111 -83.5t-137.5 -44t-134 -14.5q-75 0 -75 29q0 13 15.5 19.5t31.5 6.5q96 0 176 19q72 20 109.5 39.5t72.5 66.5q27 37 27 88q0 39 -31.5 81t-72 73t-92.5 73.5t-79 73.5q-92 -78 -174 -131q-204 -127 -282 -127q-14 0 -31 8t-17 21zM496 535q100 82 100 118 q0 17 -18 17q-29 0 -55.5 -45t-26.5 -76v-14z" />
<glyph unicode="t" horiz-adv-x="815" d="M-61 33q0 8 12.5 13t30.5 7.5t20 3.5q68 19 158 90q167 128 264 351q-66 -4 -96 -4q-22 0 -43 7t-21 25q0 37 187 37q0 1 5.5 15.5t8.5 23t10 24.5t12.5 26.5t13 21.5t15 16.5t14.5 5.5q29 0 30 -57q0 -24 -21 -75q16 3 35.5 3.5t44 -1t36.5 -2.5q2 0 6.5 1t8.5 1 t8.5 -0.5t7 -2.5t2.5 -6q0 -8 -4.5 -15t-14 -12t-19.5 -9.5t-25 -7t-26.5 -4.5t-27.5 -3.5t-24.5 -2t-21.5 -1t-15 -0.5l-2 -2q-3 -13 -12.5 -35.5t-12.5 -30.5q-49 -137 -49 -219q0 -81 45 -124.5t127 -43.5q54 0 107.5 22t85.5 44l32 22q9 0 9 -12q0 -36 -47 -64.5 t-99 -40.5t-88 -12q-100 0 -160.5 52.5t-60.5 150.5q0 32 18 129q-51 -90 -188.5 -211t-222.5 -121q-16 0 -34.5 7t-18.5 20z" />
<glyph unicode="u" horiz-adv-x="745" d="M20 131q0 35 9.5 93t33.5 115.5t56 57.5q17 0 26 -10.5t9 -26.5q0 -17 -33 -96.5t-33 -136.5q0 -52 26 -84.5t76 -32.5q38 0 68 21q25 17 46.5 38.5t35.5 38.5t31 46.5t24.5 45t24.5 52.5t24 51q13 26 33.5 47t42.5 21q27 0 39 -26t12 -58q0 -12 -3 -38t-3 -40 q0 -31 5.5 -59t18 -54t36.5 -41.5t57 -15.5q14 0 40 6t40 6q8 0 8 -8q0 -22 -32.5 -35.5t-59.5 -13.5q-45 0 -80.5 23.5t-57.5 61t-34.5 78.5t-16.5 83q-21 -51 -50 -98.5t-68 -92.5t-89.5 -72.5t-103.5 -27.5q-78 0 -118 51.5t-40 130.5z" />
<glyph unicode="v" horiz-adv-x="600" d="M20 330q0 28 31 28q5 0 17 -4q14 -6 26 -23t18 -29.5t15 -40t10 -30.5q76 -202 113 -202q44 0 190 247q4 7 20 37t27 45q21 29 50 29q9 0 15.5 -6.5t6.5 -15.5q0 -19 -46 -93.5t-83.5 -128t-67.5 -94.5q-19 -25 -32 -41t-37 -32.5t-47 -16.5q-49 0 -88 72 q-138 243 -138 299z" />
<glyph unicode="w" horiz-adv-x="774" d="M20 184q0 23 6.5 63t18.5 85t33 77.5t45 32.5q14 0 23.5 -12t9.5 -27q0 -14 -6.5 -32t-18 -41.5t-14.5 -30.5q-33 -90 -33 -154q0 -51 21.5 -93t68.5 -42q31 0 62 21q27 18 46.5 36t36 44.5t23.5 40t24.5 53t22.5 51.5q17 33 39 33q36 0 45 -49q5 -34 20.5 -78.5 t45.5 -85.5t63 -41q42 0 71 49t29 94q0 97 -57 174q-1 2 -10.5 12.5t-16 19.5t-6.5 13q0 11 15 11q37 0 68 -50t45 -106t14 -92q0 -73 -46 -130t-116 -57q-63 0 -108.5 59t-57.5 128q-28 -48 -63 -92.5t-88 -82.5t-101 -38q-43 0 -74.5 23t-48 60t-24 75.5t-7.5 78.5z" />
<glyph unicode="x" horiz-adv-x="581" d="M20 414q0 16 11.5 25.5t27.5 9.5q14 0 29 -15q32 -32 37 -39q74 -90 115 -133l32 -37q130 140 195 197q36 31 55 31q13 0 21 -11.5t8 -25.5q0 -16 -10 -29q-10 -15 -38 -38.5t-34 -29.5q-64 -59 -150 -145q124 -124 187 -135q2 0 17.5 -1t26.5 -3.5t11 -7.5 q0 -13 -23.5 -21t-39.5 -8q-36 0 -107 48t-110 87l-27 -27q-26 -28 -51 -52.5t-56 -54t-54 -47.5t-32 -18q-12 0 -12 15q0 13 11.5 34t26.5 41.5t39 47.5t39.5 43.5t38 40t25.5 26.5q-13 18 -68 66.5t-98 94.5t-43 71z" />
<glyph unicode="y" horiz-adv-x="944" d="M-115 -772q0 188 211 375q182 162 414 301q30 177 49 442q-228 -264 -362 -264q-146 0 -146 258q0 109 43 109q18 0 27.5 -14.5t10.5 -27.5t1 -34t-4 -61t-4 -60q0 -113 82 -113q11 0 22 2t22.5 7.5t19 9t21.5 11.5t19 11l64 47q12 10 24.5 23.5t21.5 23.5t22.5 28t20 26 t21.5 28.5t19 26.5q12 23 39 49q16 19 43 19q55 0 55 -86q0 -26 -3.5 -55t-10.5 -66t-9 -54q-1 -6 -36 -245q4 2 32 18.5t45.5 26.5t51.5 28.5t58 31.5t55.5 28t54.5 24.5t44.5 16t34.5 6.5q10 0 18.5 -7.5t8.5 -17.5q0 -4 -4 -12l-4 -6t-4.5 -5t-4 -4t-5.5 -3.5t-5 -2.5 t-5.5 -2.5t-5.5 -1.5t-6.5 -2t-6.5 -2q-181 -55 -363 -176l-8 -41q-11 -63 -18 -98t-21 -100t-25.5 -105.5t-31.5 -100.5t-40 -100.5t-49 -89.5t-61 -84t-73 -68.5t-88 -56.5q-46 -24 -99 -24q-81 0 -126.5 64t-45.5 149zM-43 -774q0 -55 30 -96t83 -41q8 0 28 4 q67 18 127 71t101 119q47 73 84 179.5t52.5 178t37.5 195.5q-36 -27 -102.5 -73t-119.5 -86t-96 -80q-89 -79 -157 -179t-68 -192z" />
<glyph unicode="z" horiz-adv-x="1267" d="M-25 180q0 29 42 72.5t80 71.5t75 51q112 67 234 67q42 0 79.5 -8t71.5 -25.5t54 -50t20 -77.5q0 -133 -195 -318q5 -4 13 -12q36 -34 52 -50.5t34.5 -46.5t33.5 -71q85 62 193 121.5t185 94.5t210 91q74 33 105 33q10 0 20 -5t10 -16q0 -4 -4 -12q-12 -15 -51 -31 q-16 -6 -58.5 -20.5t-72.5 -26t-57 -24.5q-192 -91 -353 -193q-20 -12 -94 -67l-12 -11q16 -68 16 -155q0 -130 -31 -254q-27 -107 -102.5 -171.5t-169.5 -64.5q-74 0 -116 49.5t-42 112.5q0 65 23.5 129t57 113t87 101.5t96.5 87t103 77.5q-15 56 -45.5 107t-71.5 77 q-1 0 -19.5 -17.5t-23.5 -21.5t-22 -18.5t-26.5 -19.5t-24.5 -13t-28.5 -11t-27.5 -3q-26 0 -42.5 14t-16.5 39q0 53 50 88t105 35q31 0 64 -10q59 55 115.5 137.5t56.5 140.5t-47 83.5t-109 25.5q-159 0 -293 -144q-2 -2 -24.5 -30.5t-39 -42t-32.5 -13.5q-14 0 -24.5 10.5 t-10.5 24.5zM211 -762q0 -47 27 -76.5t75 -29.5q34 0 71 17t60 40q57 59 76 146t19 212q0 71 -11 127q-49 -33 -89 -63.5t-84.5 -74t-74.5 -87t-49.5 -99t-19.5 -112.5zM225 -111q0 -10 15 -10q32 0 100 68h-12q-28 0 -65.5 -16.5t-37.5 -41.5z" />
<glyph unicode="{" horiz-adv-x="731" d="M102 496q0 25 18.5 37t57 20.5t51.5 13.5q7 3 22 8.5t25 9t22 10.5t21 15q48 45 48 113q0 24 -7.5 73.5t-7.5 75.5q0 75 58.5 149.5t121.5 74.5q22 0 55.5 -11t33.5 -30q0 -23 -39 -23q-11 0 -27 1t-20 1q-46 0 -77.5 -45t-31.5 -100q0 -4 1 -12.5t1 -12.5q1 -13 4.5 -39 t5.5 -47t2 -39q0 -90 -57 -153q-17 -19 -43 -36t-42.5 -24.5t-57 -23.5t-52.5 -21q21 -14 51 -30.5t49 -26.5t41 -27.5t34.5 -37t21 -51t8.5 -72.5q0 -28 -2 -78.5t-2 -69.5q0 -49 19 -86q14 -31 54.5 -59t74.5 -27q6 0 30 5t37 5q25 0 25 -22q0 -20 -26 -29.5t-58 -9.5 q-79 0 -146 67.5t-67 151.5q0 13 2 50.5t2 58.5q0 110 -51 147q-17 12 -53.5 30.5t-62 32.5t-46.5 39t-21 54z" />
<glyph unicode="|" horiz-adv-x="278" d="M102 -121q0 25 2 83t2 83q0 28 -1 88t-1 96q0 257 9 662q1 8 1.5 28t1.5 36.5t4 34.5t10 28t17 10q20 0 24.5 -21t4.5 -69t-3 -186t-3 -177v-32q-1 -95 -1.5 -211t-1.5 -195.5t-5 -154.5q0 -160 -37 -160q-7 0 -12 8q-11 11 -11 49z" />
<glyph unicode="}" horiz-adv-x="737" d="M102 -88q0 16 23 16q13 0 37.5 -5t30.5 -5q33 -1 74 27.5t55 58.5q18 40 18 86q0 21 -3 81t-3 89q0 41 12 71.5t36 52.5t46 35.5t57.5 32t55.5 31.5q-16 7 -53 21t-55 22t-42 22.5t-39 31.5q-63 71 -63 161q0 43 12 125v19q0 58 -30.5 104.5t-75.5 46.5q-5 0 -21 -1 t-27 -1q-14 0 -27.5 5.5t-13.5 17.5q0 19 35 29t60 10q66 0 124 -71t58 -146q0 -27 -7 -77.5t-7 -74.5q0 -71 49 -115q11 -10 25 -17.5t37 -15.5t28 -10q13 -5 50.5 -13.5t57 -20.5t19.5 -37q0 -38 -29 -65t-83.5 -53.5t-69.5 -37.5q-52 -37 -52 -152q0 -18 1 -50t1 -44 q0 -86 -63 -157.5t-139 -71.5q-26 0 -62.5 13t-36.5 32z" />
<glyph unicode="~" horiz-adv-x="577" d="M102 215q0 32 47.5 61t86.5 29q24 0 44 -9t30.5 -20.5t23 -20.5t24.5 -9q25 0 62 27t41 28h2q12 0 12 -16q0 -30 -42 -56t-79 -26q-33 0 -67 28.5t-51 28.5q-28 0 -73 -29.5t-50 -29.5q-11 0 -11 14z" />
<glyph unicode="&#xa1;" horiz-adv-x="518" d="M35 -356q0 26 6 41q53 271 156 577q17 40 24 43q2 2 6 2q15 0 15 -18q0 -21 -4.5 -46.5t-13.5 -64.5t-11 -47q-9 -41 -20.5 -108t-16.5 -95q-1 -8 -10.5 -66t-16 -90.5t-18.5 -78.5t-27 -69t-32 -23q-18 0 -27.5 13.5t-9.5 29.5zM223 563q0 15 13 31t30 16q21 0 40.5 -17 t19.5 -38q0 -29 -21 -35q-12 -6 -26 -6q-25 0 -40.5 15t-15.5 34z" />
<glyph unicode="&#xa2;" horiz-adv-x="1028" d="M111 352v465q0 151 92.5 256t253.5 111v155h155v-155h9q142 0 235.5 -98t93.5 -246h-174q0 72 -46.5 125.5t-117.5 54.5v-868q75 0 119.5 54t44.5 132h174q0 -162 -93 -256t-232 -94h-13v-156h-155v156q-143 3 -244.5 102.5t-101.5 261.5zM287 369q0 -99 46.5 -158 t123.5 -59v868q-79 0 -124.5 -60t-45.5 -145v-446z" />
<glyph unicode="&#xa3;" horiz-adv-x="991" d="M102 23q0 39 27.5 68t68 43.5t72 21.5t52.5 8h2q3 0 6 0.5t8 0.5h11t13.5 -0.5t15.5 -1.5t16.5 -2.5t18.5 -3.5t19 -5q4 0 7.5 21.5t6.5 65t5.5 84t6 104.5t5.5 101q-178 -26 -211 -26h-10.5h-14.5h-15.5t-16 1t-12.5 3t-9.5 5t-3.5 7q0 19 40 34.5t144 33.5l113 12l4 43 q4 45 10 82.5t17.5 90t30 92.5t44.5 76.5t65.5 56.5t88.5 20q39 0 84 -19t45 -43q0 -20 -18 -20q-14 0 -42.5 13.5t-29.5 13.5q-4 0 -13 1t-14 1q-33 0 -59 -13.5t-43.5 -39.5t-30 -54t-21 -68t-13.5 -70.5t-11 -72.5t-10 -63q-4 -16 -4 -21l108 8q33 2 99 2q96 0 96 -20 q0 -11 -15.5 -18.5t-48.5 -12t-66.5 -7t-88 -7t-94.5 -8.5q-19 -122 -25 -211.5t-9.5 -125.5t-21.5 -79q74 -41 107 -53q79 -31 147 -31q31 0 72 9t57 9q13 0 17 -2q8 -6 8 -18q0 -3 -2.5 -8t-11.5 -13t-22.5 -15t-37.5 -12t-55 -5q-38 0 -72.5 4t-64 12t-51.5 15t-44 19 t-32 18t-26 17l-17 11q-38 -51 -108.5 -92t-143.5 -41q-34 0 -66.5 17t-32.5 57zM170 35q0 -11 9.5 -19t25.5 -8q51 0 106.5 33t89.5 72q-5 0 -14.5 1t-15.5 1q-63 0 -132 -27.5t-69 -52.5z" />
<glyph unicode="&#xa4;" horiz-adv-x="919" d="M68 303l127 127q-54 76 -54 172t52 170l-125 125l108 109l131 -134q60 35 144 35q81 0 151 -39l139 138l107 -109l-133 -133q47 -76 47 -162q0 -90 -49 -164l135 -135l-107 -108l-141 139q-67 -37 -149 -37q-80 0 -142 33l-133 -135zM307 602q0 -64 41 -107.5t103 -43.5 t101.5 43.5t39.5 107.5q0 66 -39.5 110t-101.5 44t-103 -44.5t-41 -109.5z" />
<glyph unicode="&#xa5;" horiz-adv-x="1009" d="M57 1110v61h166l285 -561l278 561h166v-61l-268 -510h172v-133h-242l-24 -47v-33h266v-133h-266v-254h-172v254h-248v133h248v33l-25 47h-223v133h154z" />
<glyph unicode="&#xa6;" horiz-adv-x="610" d="M217 -168v598h174v-598h-174zM217 741v598h174v-598h-174z" />
<glyph unicode="&#xa7;" horiz-adv-x="1021" d="M80 37h172q0 -82 53 -131t123 -49h162q70 0 115 39.5t45 101.5q0 69 -44.5 101t-154.5 55l-160 32q-71 15 -122.5 35.5t-96 54t-67.5 86t-23 123.5q0 105 72 207q-62 65 -62 170q0 135 97 228.5t233 93.5h166q149 0 243.5 -96t94.5 -248h-174q0 77 -45.5 128.5 t-112.5 51.5h-172q-65 0 -109.5 -37t-44.5 -102q0 -54 37 -79t139 -48l201 -45q65 -15 115 -39.5t92.5 -64t65 -100.5t22.5 -140q0 -102 -59 -181q53 -66 53 -164q0 -127 -100.5 -227t-237.5 -100h-182q-79 0 -154.5 40t-127.5 121t-52 183zM258 496q0 -29 9 -50t21 -34 t42.5 -24.5t54 -17.5t74.5 -18l180 -41q48 -10 102 -30q21 41 21 94q0 74 -46.5 113t-158.5 63l-160 33q-66 13 -108 28q-31 -46 -31 -116z" />
<glyph unicode="&#xa8;" horiz-adv-x="530" d="M102 752q0 28 37 28q23 0 36 -23t13 -48q0 -12 -6.5 -21.5t-17.5 -9.5q-21 0 -41.5 26.5t-20.5 47.5zM342 752q0 28 37 28q23 0 36 -23t13 -48q0 -12 -7 -21.5t-18 -9.5q-21 0 -41 26t-20 48z" />
<glyph unicode="&#xa9;" horiz-adv-x="1294" d="M74 426v317q0 80 30.5 158t84.5 141.5t138.5 102.5t184.5 39h270q100 0 184.5 -39t139 -102.5t85 -141.5t30.5 -158v-317q0 -80 -30.5 -157.5t-85 -140.5t-139 -101.5t-184.5 -38.5h-270q-100 0 -184.5 38.5t-138.5 101.5t-84.5 140.5t-30.5 157.5zM227 422 q0 -108 76 -199.5t176 -91.5h336q97 0 174.5 92.5t77.5 198.5v328q0 107 -78.5 198.5t-177.5 91.5h-328q-103 0 -179.5 -91t-76.5 -199v-328zM414 455v247q0 82 53.5 141.5t142.5 59.5h90q85 0 138 -64t53 -151h-133q0 38 -22 64t-52 26h-49q-32 0 -57 -22t-25 -62v-217 q0 -40 18 -65t56 -25h61q28 0 49 26.5t21 61.5h133q0 -90 -55 -155.5t-131 -65.5h-95q-77 0 -136.5 57t-59.5 144z" />
<glyph unicode="&#xaa;" horiz-adv-x="632" d="M88 1024v25l170 424h115l172 -424v-25h-115l-31 86h-170l-28 -86h-113zM262 1202h105l-54 148z" />
<glyph unicode="&#xab;" horiz-adv-x="749" d="M102 213q0 15 33 43q124 101 185.5 150t75.5 58t20 9q10 0 10 -14q0 -13 -51 -72.5t-76 -73.5q-33 -27 -61 -50.5t-42 -35t-20 -16.5q6 -5 20 -16.5t42 -35t61 -50.5q76 -72 96 -95q31 -33 31 -53q0 -12 -10 -12t-17 5t-64 53q-37 31 -63 52q-18 15 -46 35.5t-47 35 t-38 30.5t-29 29t-10 24zM326 213q0 16 32 43q98 80 150 122t81 64t37 26.5t13 4.5q8 0 8 -12q0 -22 -29 -53q-9 -10 -33.5 -34t-44.5 -42l-20 -19q-31 -26 -59 -49.5t-42 -35.5t-20 -17q6 -5 20 -17t42 -35.5t59 -49.5q78 -72 98 -95q29 -31 29 -53q0 -12 -8 -12 q-12 0 -28.5 13t-116.5 97q-18 15 -70.5 53.5t-75 60.5t-22.5 40z" />
<glyph unicode="&#xac;" horiz-adv-x="1099" d="M172 508v160h756v-488h-154v328h-602z" />
<glyph unicode="&#xad;" horiz-adv-x="913" d="M205 260q0 27 51 29q94 4 356 4h56q15 0 28 -6.5t13 -14.5q0 -28 -41 -28q-420 -8 -432 -8q-14 0 -22.5 7t-8.5 17z" />
<glyph unicode="&#xae;" horiz-adv-x="892" d="M57 698v176q0 72 38.5 142.5t111.5 119t160 48.5h161q87 0 159.5 -48.5t110.5 -119t38 -142.5v-176q0 -53 -23 -107.5t-62.5 -99t-98 -72.5t-124.5 -28h-161q-66 0 -125 28t-98.5 72.5t-63 99t-23.5 107.5zM176 694q0 -69 54.5 -132.5t113.5 -63.5h207q57 0 111.5 66 t54.5 130v185q0 65 -55.5 131.5t-114.5 66.5h-199q-64 0 -118 -66t-54 -132v-185zM301 586v403h195q43 0 81.5 -38t38.5 -83q0 -77 -81 -120l81 -138v-24h-104l-76 143h-30v-143h-105zM406 809h45q22 0 39.5 15t17.5 38q0 21 -16.5 35t-36.5 14h-49v-102z" />
<glyph unicode="&#xaf;" horiz-adv-x="987" d="M182 1274v139h473v-139h-473z" />
<glyph unicode="&#xb0;" horiz-adv-x="872" d="M272 991q0 123 105 180q23 13 69 13q33 0 61.5 -7t56 -24.5t43.5 -52t16 -84.5q0 -65 -56 -127t-135 -62t-119.5 50.5t-40.5 113.5zM338 1008q0 -50 27.5 -86.5t76.5 -36.5q21 0 39 6q31 10 49.5 45t18.5 76q0 50 -27 83t-76 33q-47 0 -77.5 -30.5t-30.5 -89.5z" />
<glyph unicode="&#xb1;" horiz-adv-x="1153" d="M172 0v158h328v350h-328v154h328v327h151v-327h330v-154h-330v-350h330v-158h-809z" />
<glyph unicode="&#xb2;" horiz-adv-x="630" d="M102 500q0 22 23 45q102 100 211 243q33 42 33 68q0 20 -16.5 34.5t-41.5 14.5t-62.5 -26t-53.5 -29q-41 0 -41 29q0 37 56.5 65.5t94.5 28.5q49 0 88 -31t45 -80q0 -33 -13 -60t-40 -63q-94 -123 -184 -213h10q1 0 4 -1t4 -1q99 0 262 13q1 0 5 1t8 1q3 0 7 -1t7 -1 q2 -2 7 -6.5t7 -6.5t4 -6.5t2 -9.5q0 -49 -305 -49q-3 0 -15.5 -0.5t-21.5 -0.5t-22.5 1t-23 3.5t-19 7t-14.5 12.5t-5 18z" />
<glyph unicode="&#xb3;" horiz-adv-x="530" d="M102 498q0 13 8.5 21.5t22.5 8.5q10 0 35 -5t37 -5q69 0 115.5 38.5t46.5 80.5q0 7 -3.5 19.5t-3.5 13.5l-2 2q-6 22 -30 22q-12 0 -41 -8t-39 -8q-15 0 -26 10t-11 23q0 11 10.5 18.5t20.5 9.5q0 -1 9.5 5.5t20 13t13.5 6.5q77 52 77 108q0 18 -10.5 27.5t-23.5 9.5 q-33 0 -68 -28v-2q-33 -29 -53 -29q-12 -1 -20.5 8t-8.5 21q0 22 29 45h4q49 45 119 45q52 0 75 -26.5t23 -63.5q0 -70 -68 -129q4 -3 17 -7q51 -29 51 -104q0 -63 -38.5 -106t-90.5 -60.5t-111 -17.5q-76 0 -86 43z" />
<glyph unicode="&#xb4;" horiz-adv-x="405" d="M102 565q0 12 73.5 72.5t96.5 60.5q12 0 21.5 -5.5t9.5 -14.5q0 -19 -67 -64t-103 -55q-6 -2 -18 -2q-13 0 -13 8z" />
<glyph unicode="&#xb6;" horiz-adv-x="989" d="M123 879q0 88 53 156t135 102t176 34h66v-1171h-158v600q-52 10 -97.5 29.5t-86.5 52t-64.5 83t-23.5 114.5zM696 0v1171h160v-1171h-160z" />
<glyph unicode="&#xb7;" horiz-adv-x="507" d="M205 252q0 24 12 31q12 12 31 12q23 0 39 -17t16 -36q0 -16 -11 -30.5t-32 -14.5q-55 0 -55 55z" />
<glyph unicode="&#xb8;" horiz-adv-x="309" d="M106 -221q0 8 10.5 13t27.5 13t28 19q22 23 31 53.5t8.5 51.5t5 36t21.5 15q26 0 26 -21q0 -27 -4.5 -53t-17 -57t-41 -52.5t-68.5 -25.5q-27 0 -27 8z" />
<glyph unicode="&#xb9;" horiz-adv-x="352" d="M102 442q0 9 4 21v4q0 5 3.5 17t3.5 20q45 328 49 332q0 36 8 63q-10 -10 -31 -10q-15 0 -21.5 10t-6.5 21q0 1 -0.5 6t0 6t4.5 6t11.5 9.5t21 12.5t34.5 19h4q12 8 31 8q6 0 14 -4q19 -8 19 -31q0 -4 -1 -10t-1 -8q-9 -27 -19 -105t-10 -102q-4 -14 -13 -77.5 t-16 -119.5l-8 -57q-3 -30 -14.5 -48.5t-28.5 -18.5q-15 -1 -26 10t-11 26z" />
<glyph unicode="&#xba;" horiz-adv-x="587" d="M92 1176v143q0 57 47.5 108.5t104.5 51.5h102q57 0 103.5 -51.5t46.5 -108.5v-143q0 -55 -46.5 -107.5t-103.5 -52.5h-102q-57 0 -104.5 52.5t-47.5 107.5zM203 1196q0 -29 21 -52.5t46 -23.5h47q26 0 47 23.5t21 52.5v102q0 29 -21 53.5t-47 24.5h-47q-25 0 -46 -24.5 t-21 -53.5v-102z" />
<glyph unicode="&#xbb;" horiz-adv-x="751" d="M102 -41q0 20 31 53l56.5 56.5t43 41.5t30 28t24.5 21t19 15t22.5 16.5t25.5 18.5q-5 4 -25.5 19t-38.5 30t-60.5 54t-96.5 94q-25 23 -31 53q0 12 11 12q9 0 54.5 -35t225.5 -182q29 -21 35 -43q0 -16 -21 -37t-77.5 -63t-71.5 -54q-33 -27 -75 -62q-41 -34 -51 -41 t-19 -7q-11 0 -11 12zM326 -41q0 21 30 53q9 10 33 33.5t44 42.5l20 18q45 35 82.5 68.5t39.5 34.5q-7 5 -21 17.5t-41 36t-60 48.5q-77 72 -97 95q-30 32 -30 53q0 12 10 12q6 0 20.5 -10t74.5 -57.5t185 -149.5q33 -24 33 -43q0 -17 -21.5 -38t-76.5 -62t-72 -54 q-32 -27 -74 -62q-42 -36 -51 -42t-18 -6q-10 0 -10 12z" />
<glyph unicode="&#xbc;" horiz-adv-x="1255" d="M102 485q0 15 2 21v4q0 7 3 19.5t4 17.5q47 328 47 332q0 2 4 25t4 38q-7 -10 -27 -10q-14 0 -23.5 10t-9.5 19q0 10 2 16t9 11.5t13 8.5t22.5 11t29.5 14h2q11 8 33 8q6 0 14 -4q17 -8 17 -27q0 -23 -4 -22q-3 -17 -14 -105.5t-15 -101.5q-4 -15 -12.5 -78t-15 -119.5 t-5.5 -56.5q-12 -67 -43 -67q-37 0 -37 36zM119 68q0 -7 8 -12t14 -5q12 0 24 5.5t26 18.5t22 22.5t24.5 30.5t22.5 28q48 57 97 120t119.5 155t131.5 169q10 18 136.5 174t136.5 180q10 17 10 29q0 27 -21 27q-28 0 -98 -88l-319 -412q-70 -82 -150 -191t-121 -157 q-6 -8 -20 -24.5t-18.5 -22.5t-12 -16.5t-10 -17t-2.5 -13.5zM741 307q0 15 9 33q4 9 26 70.5t53 142.5q37 135 74 135q10 0 21.5 -9.5t11.5 -23.5q0 -15 -8 -28v-4q-14 -32 -15 -43q-4 -11 -30 -72.5t-62 -185.5h8q29 0 62 2t55 2q46 155 49 168l4 6q2 10 14 22.5t25 12.5 q27 -2 27 -35q0 -13 -4 -25v-12q-22 -48 -37 -129q2 0 6 4q25 2 76 2q12 0 24 -6q8 -2 15.5 -11.5t7.5 -19.5q0 -27 -25 -33t-127 -6q-9 -18 -14.5 -40t-9.5 -31q-7 -25 -12.5 -42t-8.5 -22t-4.5 -9t-1.5 -9q-15 -32 -25 -43t-22 -11q-31 0 -31 47q9 20 54 148v6 q-47 -6 -111 -6q-12 0 -25.5 2t-31 15.5t-17.5 37.5z" />
<glyph unicode="&#xbd;" horiz-adv-x="1239" d="M102 442q0 9 4 21v4q0 5 3.5 17t3.5 20q45 328 49 332q0 36 8 63q-10 -10 -31 -10q-15 0 -21.5 10t-6.5 21q0 1 -0.5 6t0 6t4.5 6t11.5 9.5t21 12.5t34.5 19h4q12 8 31 8q6 0 14 -4q19 -8 19 -31q0 -4 -1 -10t-1 -8q-9 -27 -19 -105t-10 -102q-4 -14 -13 -77.5 t-16 -119.5l-8 -57q-3 -30 -14.5 -48.5t-28.5 -18.5q-15 -1 -26 10t-11 26zM119 29q0 -7 8 -12t14 -5q12 0 24 5.5t26 18.5t22 22.5t24.5 30.5t22.5 28q48 57 97 120t119.5 155t131.5 169q10 18 136.5 174t136.5 180q10 17 10 29q0 27 -21 27q-28 0 -98 -88l-319 -412 q-70 -82 -150 -191t-121 -157q-6 -8 -20 -24.5t-18.5 -22.5t-12 -16.5t-10 -17t-2.5 -13.5zM711 74q0 23 22 45q102 100 211 243q33 42 33 68q0 20 -16.5 34.5t-40.5 14.5q-25 0 -63 -26t-54 -29q-41 0 -41 29q0 37 56.5 65.5t94.5 28.5q49 0 88.5 -31t45.5 -80 q0 -23 -8.5 -46t-18 -37.5t-27.5 -39.5q-94 -123 -184 -213h10q1 0 4 -1t4 -1q101 0 263 13l4 1q4 1 8 1q3 0 7 -1t7 -1q2 -2 5 -4.5t5 -4.5l4 -4t3.5 -4.5t2.5 -5.5t1 -6q0 -49 -306 -49q-3 0 -15.5 -0.5t-21.5 -0.5t-22.5 1t-23 3.5t-18.5 7t-14 12.5t-5 18z" />
<glyph unicode="&#xbe;" horiz-adv-x="1376" d="M102 498q0 13 8.5 21.5t22.5 8.5q10 0 35 -5t37 -5q69 0 115.5 38.5t46.5 80.5q0 7 -3.5 19.5t-3.5 13.5l-2 2q-6 22 -30 22q-12 0 -41 -8t-39 -8q-15 0 -26 10t-11 23q0 11 10.5 18.5t20.5 9.5q0 -1 9.5 5.5t20 13t13.5 6.5q77 52 77 108q0 18 -10.5 27.5t-23.5 9.5 q-33 0 -68 -28v-2q-33 -29 -53 -29q-12 -1 -20.5 8t-8.5 21q0 22 29 45h4q49 45 119 45q52 0 75 -26.5t23 -63.5q0 -70 -68 -129q4 -3 17 -7q51 -29 51 -104q0 -63 -38.5 -106t-90.5 -60.5t-111 -17.5q-76 0 -86 43zM246 14q0 -7 8 -11.5t14 -4.5q12 0 24 5.5t26 18.5t22 22 t25 30t22 28q62 73 177 223.5t171 221.5q10 18 136.5 174t136.5 180q10 17 10 29q0 26 -21 26q-28 0 -98 -88l-319 -411q-70 -82 -150 -191t-121 -157q-6 -7 -15 -18l-13.5 -16.5t-11.5 -14t-10 -13.5t-6.5 -11.5t-5 -11.5t-1.5 -10zM860 246q0 17 8 33l80 213q20 65 37 100 h2q12 35 35 35q11 0 22 -8.5t11 -24.5q0 -14 -6 -29v-4q-12 -26 -31.5 -81.5t-30.5 -80.5q-4 -20 -20 -67t-29 -72h12q20 0 54 2t61 2q32 115 51 168v6q14 35 41 35q12 0 20.5 -11t8.5 -24q0 -12 -4 -24l-4 -13q-21 -88 -37 -129q6 0 10 4q37 3 74 3q13 0 24 -7q9 -2 17 -12 t8 -20q-4 -25 -35 -31l-17 -1q-18 -2 -46.5 -3.5t-55.5 -1.5q-7 -21 -15 -46t-12.5 -40.5t-10.5 -33.5l-9.5 -28.5t-8.5 -21.5t-9 -17t-9.5 -11t-11 -7t-12.5 -2q-11 0 -21 10.5t-10 24.5q0 27 13 43q0 2 7 22t17 48t14 46v7q-53 -7 -110 -7q-7 0 -16 1.5t-23 6.5 t-23.5 17.5t-9.5 30.5z" />
<glyph unicode="&#xbf;" horiz-adv-x="702" d="M-16 -215q0 63 36 121q27 47 115 95t115 75q23 21 40.5 56t24.5 60.5t17 72.5t14 61q14 28 29 28q16 0 16 -28q1 -23 -12 -97q-6 -114 -76 -184q-22 -22 -59 -45.5t-67.5 -42.5t-60 -44t-46.5 -61t-17 -81q0 -62 42.5 -104t115.5 -42q32 0 78.5 15.5t79.5 46.5 q9 12 28 12q12 0 20.5 -9.5t8.5 -21.5q0 -18 -10 -28q-32 -37 -88 -57.5t-111 -20.5q-17 0 -45 4q-104 22 -146 75t-42 144zM344 618q0 16 13.5 34t33.5 18q26 0 49 -21t23 -43t-25 -31q-10 -10 -28 -10q-28 0 -47 16t-19 37z" />
<glyph unicode="&#xc0;" horiz-adv-x="1003" d="M61 -29q0 14 59 146t116 250q-45 -5 -46 -5q-30 0 -44.5 9.5t-14.5 23.5q0 11 6.5 18t20.5 10.5t28.5 5t38.5 4.5t43 7q31 69 76.5 172t75.5 171.5t63.5 141t58 118.5t40.5 65q38 45 80 45q22 0 38.5 -14t25.5 -32.5t15.5 -49t8.5 -52t4.5 -54.5t3.5 -44q6 -64 20 -179.5 t23 -199.5l30 4q12 3 23 3q10 0 18.5 -7t8.5 -18q0 -20 -18 -30.5t-56 -16.5q8 -138 20 -256.5t19.5 -175t7.5 -58.5q-3 -22 -31 -22q-10 0 -18 6t-13.5 19t-9.5 25.5t-6.5 32.5t-4 33t-3 33.5t-2.5 28.5l-31 320q-38 -7 -149.5 -25.5t-192 -32.5t-80.5 -18 q-24 -55 -53.5 -119.5t-44 -96.5t-31 -71t-30.5 -74q-18 -45 -35 -57q-14 -10 -33 -10q-25 0 -25 26zM348 453q252 39 340 55l41 8q-13 179 -51 496q-6 51 -31 51q-12 0 -35.5 -37.5t-61.5 -118t-71 -155.5t-87 -198q-29 -67 -44 -101zM561 1360q0 9 9.5 14.5t21.5 5.5 q23 0 96.5 -60.5t73.5 -72.5q0 -8 -14 -8q-11 0 -17 2q-36 10 -103 55t-67 64z" />
<glyph unicode="&#xc1;" horiz-adv-x="1003" d="M61 -29q0 14 59 146t116 250q-45 -5 -46 -5q-30 0 -44.5 9.5t-14.5 23.5q0 11 6.5 18t20.5 10.5t28.5 5t38.5 4.5t43 7q31 69 76.5 172t75.5 171.5t63.5 141t58 118.5t40.5 65q38 45 80 45q22 0 38.5 -14t25.5 -32.5t15.5 -49t8.5 -52t4.5 -54.5t3.5 -44q6 -64 20 -179.5 t23 -199.5l30 4q12 3 23 3q10 0 18.5 -7t8.5 -18q0 -20 -18 -30.5t-56 -16.5q8 -138 20 -256.5t19.5 -175t7.5 -58.5q-3 -22 -31 -22q-10 0 -18 6t-13.5 19t-9.5 25.5t-6.5 32.5t-4 33t-3 33.5t-2.5 28.5l-31 320q-38 -7 -149.5 -25.5t-192 -32.5t-80.5 -18 q-24 -55 -53.5 -119.5t-44 -96.5t-31 -71t-30.5 -74q-18 -45 -35 -57q-14 -10 -33 -10q-25 0 -25 26zM348 453q252 39 340 55l41 8q-13 179 -51 496q-6 51 -31 51q-12 0 -35.5 -37.5t-61.5 -118t-71 -155.5t-87 -198q-29 -67 -44 -101zM569 1237q0 12 73.5 72.5t96.5 60.5 q12 0 21.5 -5.5t9.5 -14.5q0 -19 -67 -64t-103 -55q-6 -2 -18 -2q-13 0 -13 8z" />
<glyph unicode="&#xc2;" horiz-adv-x="1003" d="M61 -29q0 14 59 146t116 250q-45 -5 -46 -5q-30 0 -44.5 9.5t-14.5 23.5q0 11 6.5 18t20.5 10.5t28.5 5t38.5 4.5t43 7q31 69 76.5 172t75.5 171.5t63.5 141t58 118.5t40.5 65q38 45 80 45q22 0 38.5 -14t25.5 -32.5t15.5 -49t8.5 -52t4.5 -54.5t3.5 -44q6 -64 20 -179.5 t23 -199.5l30 4q12 3 23 3q10 0 18.5 -7t8.5 -18q0 -20 -18 -30.5t-56 -16.5q8 -138 20 -256.5t19.5 -175t7.5 -58.5q-3 -22 -31 -22q-10 0 -18 6t-13.5 19t-9.5 25.5t-6.5 32.5t-4 33t-3 33.5t-2.5 28.5l-31 320q-38 -7 -149.5 -25.5t-192 -32.5t-80.5 -18 q-24 -55 -53.5 -119.5t-44 -96.5t-31 -71t-30.5 -74q-18 -45 -35 -57q-14 -10 -33 -10q-25 0 -25 26zM348 453q252 39 340 55l41 8q-13 179 -51 496q-6 51 -31 51q-12 0 -35.5 -37.5t-61.5 -118t-71 -155.5t-87 -198q-29 -67 -44 -101zM494 1220v3q0 13 52.5 52t106.5 73 q13 8 23 8h4q7 0 74.5 -43.5t97.5 -69.5q12 -10 12 -20q0 -11 -12 -11q-27 0 -129 64q-40 24 -43 24q-15 -4 -57 -28q-92 -58 -115 -58q-6 0 -9.5 2t-4.5 4z" />
<glyph unicode="&#xc3;" horiz-adv-x="1003" d="M61 -29q0 14 59 146t116 250q-45 -5 -46 -5q-30 0 -44.5 9.5t-14.5 23.5q0 11 6.5 18t20.5 10.5t28.5 5t38.5 4.5t43 7q31 69 76.5 172t75.5 171.5t63.5 141t58 118.5t40.5 65q38 45 80 45q22 0 38.5 -14t25.5 -32.5t15.5 -49t8.5 -52t4.5 -54.5t3.5 -44q6 -64 20 -179.5 t23 -199.5l30 4q12 3 23 3q10 0 18.5 -7t8.5 -18q0 -20 -18 -30.5t-56 -16.5q8 -138 20 -256.5t19.5 -175t7.5 -58.5q-3 -22 -31 -22q-10 0 -18 6t-13.5 19t-9.5 25.5t-6.5 32.5t-4 33t-3 33.5t-2.5 28.5l-31 320q-38 -7 -149.5 -25.5t-192 -32.5t-80.5 -18 q-24 -55 -53.5 -119.5t-44 -96.5t-31 -71t-30.5 -74q-18 -45 -35 -57q-14 -10 -33 -10q-25 0 -25 26zM348 453q252 39 340 55l41 8q-13 179 -51 496q-6 51 -31 51q-12 0 -35.5 -37.5t-61.5 -118t-71 -155.5t-87 -198q-29 -67 -44 -101zM502 1241q0 32 47 61t86 29 q24 0 44 -9t30.5 -20.5t23.5 -20.5t25 -9q25 0 61.5 27t40.5 28h2q12 0 12 -16q0 -30 -41.5 -56t-78.5 -26q-33 0 -67.5 28.5t-51.5 28.5q-28 0 -73 -29.5t-50 -29.5q-10 0 -10 14z" />
<glyph unicode="&#xc4;" horiz-adv-x="1003" d="M61 -29q0 14 59 146t116 250q-45 -5 -46 -5q-30 0 -44.5 9.5t-14.5 23.5q0 11 6.5 18t20.5 10.5t28.5 5t38.5 4.5t43 7q31 69 76.5 172t75.5 171.5t63.5 141t58 118.5t40.5 65q38 45 80 45q22 0 38.5 -14t25.5 -32.5t15.5 -49t8.5 -52t4.5 -54.5t3.5 -44q6 -64 20 -179.5 t23 -199.5l30 4q12 3 23 3q10 0 18.5 -7t8.5 -18q0 -20 -18 -30.5t-56 -16.5q8 -138 20 -256.5t19.5 -175t7.5 -58.5q-3 -22 -31 -22q-10 0 -18 6t-13.5 19t-9.5 25.5t-6.5 32.5t-4 33t-3 33.5t-2.5 28.5l-31 320q-38 -7 -149.5 -25.5t-192 -32.5t-80.5 -18 q-24 -55 -53.5 -119.5t-44 -96.5t-31 -71t-30.5 -74q-18 -45 -35 -57q-14 -10 -33 -10q-25 0 -25 26zM348 453q252 39 340 55l41 8q-13 179 -51 496q-6 51 -31 51q-12 0 -35.5 -37.5t-61.5 -118t-71 -155.5t-87 -198q-29 -67 -44 -101zM498 1298q0 14 11 21.5t26 7.5 q23 0 36 -23.5t13 -48.5q0 -11 -7 -20.5t-18 -9.5q-21 0 -41 25.5t-20 47.5zM737 1298q0 14 11 21.5t26 7.5q23 0 36 -23.5t13 -48.5q0 -12 -6.5 -21t-17.5 -9q-21 0 -41.5 26t-20.5 47z" />
<glyph unicode="&#xc6;" horiz-adv-x="1267" d="M61 -47q0 10 15 45q88 187 196 426q-20 -2 -51 -2q-92 0 -92 39q0 6 2.5 11t8 8.5t12 6t17 3.5t20 2t24.5 1t26.5 -0.5t30 -0.5h31.5q21 48 68 155t69.5 157t55 120t54 107.5t36.5 55.5q39 46 80 46q72 0 81 -134q337 23 347 23q43 0 43 -16q0 -20 -78 -36.5t-139 -21.5 q-39 -3 -79 -6.5t-62.5 -5.5t-28.5 -2q0 -83 -11 -420l31 4q76 5 160.5 15t138.5 17t68 7q30 0 30 -27q0 -21 -39 -33.5t-90 -18t-53 -5.5l-248 -27l-22 -407q15 2 119 20t210 35t142 19q9 0 15.5 -6t6.5 -15q0 -28 -49 -47q-27 -10 -188 -38.5t-178 -22.5q-40 -6 -82 -9 q-3 -39 -8.5 -49t-20.5 -10q-41 0 -41 59q14 96 17 153t3.5 139t4.5 171q-47 0 -172 -6t-146 -6q-50 -117 -109 -246t-81 -188q-7 -19 -13 -31.5t-20.5 -24.5t-34.5 -12q-12 0 -19.5 8.5t-7.5 20.5zM377 494q70 3 149 6t111 4l29 4q0 90 9 217t9 170q0 147 -35 147 q-13 0 -32.5 -27.5t-49.5 -90t-53.5 -116t-67.5 -155.5t-69 -159z" />
<glyph unicode="&#xc7;" horiz-adv-x="1097" d="M102 379q0 157 111 342q94 158 209.5 235.5t220.5 77.5q79 0 152 -38.5t73 -86.5q0 -16 -16 -16q-19 0 -45 22q-74 56 -160 56q-119 0 -241 -111l-7.5 -7.5l-12 -12t-16 -16.5t-19.5 -21.5t-21 -25.5t-23 -30.5t-23.5 -35.5t-23.5 -41q-84 -151 -84 -303q0 -46 7.5 -87 t30.5 -85.5t60 -76.5t100.5 -52.5t147.5 -20.5q253 0 467 178q68 59 86 62q23 0 23 -19q0 -28 -54 -82q-52 -44 -93.5 -72.5t-103 -60.5t-136.5 -49t-164 -20q26 -21 26 -60q0 -67 -35.5 -110t-78.5 -64q-11 -14 -43 -14q-19 0 -19 16q0 9 14 22t31 25t31 34t14 48 q0 13 -4 32.5t-4 35.5q0 21 6 33q-98 4 -173 37t-120 89t-67.5 124.5t-22.5 148.5z" />
<glyph unicode="&#xc8;" horiz-adv-x="995" d="M92 31q0 18 19 29t75 20l2 2q0 1 1 4t1 4l95 393h-13q-7 0 -12.5 4.5t-5.5 10.5q0 31 45 45l76 307q7 38 25.5 107.5t21.5 89.5l2 2h-2q-40 -7 -90 -13q-31 0 -31 21q0 11 6 17.5t42.5 17.5t107.5 20q50 7 157 14t136 7q98 0 145 -15q2 -1 12.5 -3t17 -4t12.5 -7.5 t7 -13.5q0 -29 -53 -29q-21 0 -73 5t-81 5q-117 0 -229 -18q-13 0 -19 -11.5t-28 -100t-60 -255.5q-18 -79 -28 -125l2 -2q4 2 20 2l19 4q41 5 108 10t110 7t48 2h2q27 2 84 2q96 0 96 -27q0 -10 -11.5 -16.5t-40.5 -11t-57.5 -7t-83 -7t-98.5 -9.5h-16q-30 -3 -107.5 -13 t-95.5 -10v-2q-61 -255 -98 -389v-2l20 2q72 9 232.5 32.5t249.5 33.5q5 1 15 2.5t18 2.5t14 1q67 0 67 -37q0 -25 -100 -25q-9 -5 -44 -8t-40 -4h-14q-66 -13 -181 -25.5t-159 -19.5q-91 -18 -94 -18q-25 -90 -52 -90q-8 0 -16 9t-8 23q0 11 8 39v4l-2 -2q-40 -8 -51 -8 t-18 9t-7 18zM549 1298q0 9 9.5 15t21.5 6q23 0 96.5 -60.5t73.5 -72.5q0 -8 -15 -8q-10 0 -16 2q-37 10 -103.5 54.5t-66.5 63.5z" />
<glyph unicode="&#xc9;" horiz-adv-x="995" d="M92 31q0 18 19 29t75 20l2 2q0 1 1 4t1 4l95 393h-13q-7 0 -12.5 4.5t-5.5 10.5q0 31 45 45l76 307q7 38 25.5 107.5t21.5 89.5l2 2h-2q-40 -7 -90 -13q-31 0 -31 21q0 11 6 17.5t42.5 17.5t107.5 20q50 7 157 14t136 7q98 0 145 -15q2 -1 12.5 -3t17 -4t12.5 -7.5 t7 -13.5q0 -29 -53 -29q-21 0 -73 5t-81 5q-117 0 -229 -18q-13 0 -19 -11.5t-28 -100t-60 -255.5q-18 -79 -28 -125l2 -2q4 2 20 2l19 4q41 5 108 10t110 7t48 2h2q27 2 84 2q96 0 96 -27q0 -10 -11.5 -16.5t-40.5 -11t-57.5 -7t-83 -7t-98.5 -9.5h-16q-30 -3 -107.5 -13 t-95.5 -10v-2q-61 -255 -98 -389v-2l20 2q72 9 232.5 32.5t249.5 33.5q5 1 15 2.5t18 2.5t14 1q67 0 67 -37q0 -25 -100 -25q-9 -5 -44 -8t-40 -4h-14q-66 -13 -181 -25.5t-159 -19.5q-91 -18 -94 -18q-25 -90 -52 -90q-8 0 -16 9t-8 23q0 11 8 39v4l-2 -2q-40 -8 -51 -8 t-18 9t-7 18zM567 1223q0 12 73.5 72.5t96.5 60.5q12 0 21.5 -6t9.5 -15q0 -19 -66.5 -63.5t-103.5 -54.5q-9 -3 -18 -3q-13 0 -13 9z" />
<glyph unicode="&#xca;" horiz-adv-x="995" d="M92 31q0 18 19 29t75 20l2 2q0 1 1 4t1 4l95 393h-13q-7 0 -12.5 4.5t-5.5 10.5q0 31 45 45l76 307q7 38 25.5 107.5t21.5 89.5l2 2h-2q-40 -7 -90 -13q-31 0 -31 21q0 11 6 17.5t42.5 17.5t107.5 20q50 7 157 14t136 7q98 0 145 -15q2 -1 12.5 -3t17 -4t12.5 -7.5 t7 -13.5q0 -29 -53 -29q-21 0 -73 5t-81 5q-117 0 -229 -18q-13 0 -19 -11.5t-28 -100t-60 -255.5q-18 -79 -28 -125l2 -2q4 2 20 2l19 4q41 5 108 10t110 7t48 2h2q27 2 84 2q96 0 96 -27q0 -10 -11.5 -16.5t-40.5 -11t-57.5 -7t-83 -7t-98.5 -9.5h-16q-30 -3 -107.5 -13 t-95.5 -10v-2q-61 -255 -98 -389v-2l20 2q72 9 232.5 32.5t249.5 33.5q5 1 15 2.5t18 2.5t14 1q67 0 67 -37q0 -25 -100 -25q-9 -5 -44 -8t-40 -4h-14q-66 -13 -181 -25.5t-159 -19.5q-91 -18 -94 -18q-25 -90 -52 -90q-8 0 -16 9t-8 23q0 11 8 39v4l-2 -2q-40 -8 -51 -8 t-18 9t-7 18zM500 1212v2q0 13 52.5 52t106.5 73q15 9 23 9h4q7 0 74.5 -43.5t97.5 -69.5q12 -10 12 -21q0 -10 -12 -10q-27 0 -129 64q-40 24 -43 24q-15 -4 -57 -28q-92 -58 -115 -58q-6 0 -9.5 2t-4.5 4z" />
<glyph unicode="&#xcb;" horiz-adv-x="995" d="M92 31q0 18 19 29t75 20l2 2q0 1 1 4t1 4l95 393h-13q-7 0 -12.5 4.5t-5.5 10.5q0 31 45 45l76 307q7 38 25.5 107.5t21.5 89.5l2 2h-2q-40 -7 -90 -13q-31 0 -31 21q0 11 6 17.5t42.5 17.5t107.5 20q50 7 157 14t136 7q98 0 145 -15q2 -1 12.5 -3t17 -4t12.5 -7.5 t7 -13.5q0 -29 -53 -29q-21 0 -73 5t-81 5q-117 0 -229 -18q-13 0 -19 -11.5t-28 -100t-60 -255.5q-18 -79 -28 -125l2 -2q4 2 20 2l19 4q41 5 108 10t110 7t48 2h2q27 2 84 2q96 0 96 -27q0 -10 -11.5 -16.5t-40.5 -11t-57.5 -7t-83 -7t-98.5 -9.5h-16q-30 -3 -107.5 -13 t-95.5 -10v-2q-61 -255 -98 -389v-2l20 2q72 9 232.5 32.5t249.5 33.5q5 1 15 2.5t18 2.5t14 1q67 0 67 -37q0 -25 -100 -25q-9 -5 -44 -8t-40 -4h-14q-66 -13 -181 -25.5t-159 -19.5q-91 -18 -94 -18q-25 -90 -52 -90q-8 0 -16 9t-8 23q0 11 8 39v4l-2 -2q-40 -8 -51 -8 t-18 9t-7 18zM526 1309q0 28 37 28q23 0 36 -23t13 -48q0 -12 -6.5 -21.5t-17.5 -9.5q-21 0 -41.5 26.5t-20.5 47.5zM766 1309q0 28 37 28q23 0 36 -23t13 -48q0 -12 -7 -21.5t-18 -9.5q-21 0 -41 26t-20 48z" />
<glyph unicode="&#xcc;" horiz-adv-x="538" d="M102 10q0 19 61.5 182t96.5 248q65 166 199 490q4 11 12 31.5t13 33t12.5 30t13.5 28t13 21t14 15.5t14 5q4 0 12 -4q12 -9 12 -27q0 -17 -4.5 -32.5t-16 -42t-13.5 -30.5q-49 -118 -178.5 -445t-167.5 -433q-3 -7 -15.5 -40.5t-24 -52t-24.5 -18.5q-29 0 -29 41z M410 1282q0 9 9 15t21 6q23 0 96.5 -61t73.5 -73q0 -8 -14 -8q-10 0 -16 2q-36 10 -103 55t-67 64z" />
<glyph unicode="&#xcd;" horiz-adv-x="538" d="M102 10q0 -41 29 -41q13 0 24.5 18.5t24 52t15.5 40.5q38 106 167.5 433t178.5 445q3 8 10.5 25t12 27.5t8 25t3.5 27.5q0 18 -12 27q-8 4 -12 4q-7 0 -14 -5t-14 -15.5t-13 -21t-13.5 -28t-12.5 -30t-13 -33t-12 -31.5q-134 -324 -199 -490q-35 -85 -96.5 -248 t-61.5 -182zM512 1192q0 12 73.5 72.5t96.5 60.5q12 0 21.5 -5.5t9.5 -14.5q0 -19 -67 -64t-103 -55q-6 -2 -19 -2q-12 0 -12 8z" />
<glyph unicode="&#xce;" horiz-adv-x="538" d="M102 10q0 -41 29 -41q13 0 24.5 18.5t24 52t15.5 40.5q38 106 167.5 433t178.5 445q3 8 10.5 25t12 27.5t8 25t3.5 27.5q0 18 -12 27q-8 4 -12 4q-7 0 -14 -5t-14 -15.5t-13 -21t-13.5 -28t-12.5 -30t-13 -33t-12 -31.5q-134 -324 -199 -490q-35 -85 -96.5 -248 t-61.5 -182zM385 1198q0 13 52.5 52t107.5 73q13 8 22 8h4q7 0 74.5 -43t97.5 -69q13 -10 13 -21q0 -10 -13 -10q-29 0 -129 63q-42 25 -43 25q-12 -3 -57 -29q-91 -57 -115 -57q-6 0 -9.5 2t-3.5 4z" />
<glyph unicode="&#xcf;" horiz-adv-x="538" d="M102 10q0 -41 29 -41q13 0 24.5 18.5t24 52t15.5 40.5q38 106 167.5 433t178.5 445q3 8 10.5 25t12 27.5t8 25t3.5 27.5q0 18 -12 27q-8 4 -12 4q-7 0 -14 -5t-14 -15.5t-13 -21t-13.5 -28t-12.5 -30t-13 -33t-12 -31.5q-134 -324 -199 -490q-35 -85 -96.5 -248 t-61.5 -182zM397 1296q0 14 11 21.5t26 7.5q23 0 36 -23.5t13 -48.5q0 -12 -6.5 -21t-17.5 -9q-21 0 -41.5 26t-20.5 47zM637 1296q0 14 11 21.5t26 7.5q23 0 36 -23.5t13 -48.5q0 -11 -7 -20.5t-18 -9.5q-21 0 -41 25.5t-20 47.5z" />
<glyph unicode="&#xd1;" horiz-adv-x="1107" d="M80 -4q0 -17 8.5 -29t20.5 -12q23 0 34.5 23.5t19.5 60.5q1 4 1 6q27 95 43 141q72 227 80 256q12 48 14 54q126 452 141 452q6 0 13 -13t10 -26q5 -19 82 -313l86 -336q3 -9 8 -35q35 -127 55 -163q28 -52 70 -52q27 0 51.5 27.5t36.5 60.5q39 94 119 351 q65 217 102 319q52 152 55 166l7 22q12 32 12 50q0 8 -9 17t-22 9q-23 0 -38 -26t-21 -56q-34 -120 -127 -403q-19 -63 -56 -175.5t-42 -127.5q-11 -35 -16 -50t-15 -40.5t-18.5 -36.5t-16.5 -11q-16 0 -55.5 119.5t-69.5 249.5l-29 121q-71 304 -98.5 384.5t-69.5 80.5 q-22 0 -41 -18t-33.5 -52.5t-23 -60t-18.5 -64.5q0 -2 -2 -7t-2 -7q-24 -84 -50 -174t-57 -194.5t-47 -159.5l-88 -308q-4 -12 -4 -20zM659 1151q0 32 47.5 61t86.5 29q24 0 44 -9t30.5 -20.5t23 -20.5t24.5 -9q25 0 62 27t41 28h2q12 0 12 -16q0 -30 -42 -56t-79 -26 q-33 0 -67 28.5t-51 28.5q-28 0 -73 -29.5t-50 -29.5q-11 0 -11 14z" />
<glyph unicode="&#xd2;" horiz-adv-x="1161" d="M102 334q0 174 136 375q71 106 135.5 181t111 110.5t78 50t53.5 14.5q33 0 73 -30.5t44 -82.5q53 21 113 21q195 0 264 -185q10 -33 10 -79q0 -78 -34.5 -181.5t-94.5 -191.5q-46 -66 -103 -126.5t-129 -115.5t-158.5 -88t-172.5 -33q-47 0 -90 10t-87 35.5t-76 65 t-52.5 104t-20.5 146.5zM172 322q0 -79 23.5 -136t65 -87t88.5 -43t104 -13q48 0 82 10q52 14 111.5 46.5t124 86.5t120 120.5t98.5 156.5t60 186q4 24 4 47q0 94 -54 153.5t-137 59.5q-46 0 -96 -16q-61 -21 -83.5 -34t-51.5 -42q-14 -14 -27 -14q-24 0 -24 28 q0 15 11 31.5t23 25.5l11 9q51 31 71 39q-3 3 -16 19t-23.5 23t-23.5 7q-36 0 -89 -31t-89 -65q-8 -7 -29.5 -31.5t-60.5 -78t-76 -113.5q-54 -88 -85.5 -179.5t-31.5 -164.5zM672 1231q0 9 9 14.5t21 5.5q23 0 96.5 -60.5t73.5 -72.5q0 -8 -14 -8q-10 0 -16 2 q-36 10 -103 55t-67 64z" />
<glyph unicode="&#xd3;" horiz-adv-x="1161" d="M102 334q0 174 136 375q71 106 135.5 181t111 110.5t78 50t53.5 14.5q33 0 73 -30.5t44 -82.5q53 21 113 21q195 0 264 -185q10 -33 10 -79q0 -78 -34.5 -181.5t-94.5 -191.5q-46 -66 -103 -126.5t-129 -115.5t-158.5 -88t-172.5 -33q-47 0 -90 10t-87 35.5t-76 65 t-52.5 104t-20.5 146.5zM172 322q0 -79 23.5 -136t65 -87t88.5 -43t104 -13q48 0 82 10q52 14 111.5 46.5t124 86.5t120 120.5t98.5 156.5t60 186q4 24 4 47q0 94 -54 153.5t-137 59.5q-46 0 -96 -16q-61 -21 -83.5 -34t-51.5 -42q-14 -14 -27 -14q-24 0 -24 28 q0 15 11 31.5t23 25.5l11 9q51 31 71 39q-3 3 -16 19t-23.5 23t-23.5 7q-36 0 -89 -31t-89 -65q-8 -7 -29.5 -31.5t-60.5 -78t-76 -113.5q-54 -88 -85.5 -179.5t-31.5 -164.5zM733 1110q0 12 73.5 72.5t96.5 60.5q12 0 21.5 -5.5t9.5 -14.5q0 -19 -67 -64t-103 -55 q-6 -2 -19 -2q-12 0 -12 8z" />
<glyph unicode="&#xd4;" horiz-adv-x="1161" d="M102 334q0 174 136 375q71 106 135.5 181t111 110.5t78 50t53.5 14.5q33 0 73 -30.5t44 -82.5q53 21 113 21q195 0 264 -185q10 -33 10 -79q0 -78 -34.5 -181.5t-94.5 -191.5q-46 -66 -103 -126.5t-129 -115.5t-158.5 -88t-172.5 -33q-47 0 -90 10t-87 35.5t-76 65 t-52.5 104t-20.5 146.5zM172 322q0 -79 23.5 -136t65 -87t88.5 -43t104 -13q48 0 82 10q52 14 111.5 46.5t124 86.5t120 120.5t98.5 156.5t60 186q4 24 4 47q0 94 -54 153.5t-137 59.5q-46 0 -96 -16q-61 -21 -83.5 -34t-51.5 -42q-14 -14 -27 -14q-24 0 -24 28 q0 15 11 31.5t23 25.5l11 9q51 31 71 39q-3 3 -16 19t-23.5 23t-23.5 7q-36 0 -89 -31t-89 -65q-8 -7 -29.5 -31.5t-60.5 -78t-76 -113.5q-54 -88 -85.5 -179.5t-31.5 -164.5zM528 1132v3q0 13 52.5 52t107.5 73q13 8 23 8h4q7 0 74.5 -43.5t97.5 -69.5q12 -10 12 -20 q0 -11 -12 -11q-27 0 -129 64q-40 24 -43 24q-17 -4 -58 -28q-92 -58 -114 -58q-6 0 -10 2t-5 4z" />
<glyph unicode="&#xd5;" horiz-adv-x="1161" d="M102 334q0 174 136 375q71 106 135.5 181t111 110.5t78 50t53.5 14.5q33 0 73 -30.5t44 -82.5q53 21 113 21q195 0 264 -185q10 -33 10 -79q0 -78 -34.5 -181.5t-94.5 -191.5q-46 -66 -103 -126.5t-129 -115.5t-158.5 -88t-172.5 -33q-47 0 -90 10t-87 35.5t-76 65 t-52.5 104t-20.5 146.5zM172 322q0 -79 23.5 -136t65 -87t88.5 -43t104 -13q48 0 82 10q52 14 111.5 46.5t124 86.5t120 120.5t98.5 156.5t60 186q4 24 4 47q0 94 -54 153.5t-137 59.5q-46 0 -96 -16q-61 -21 -83.5 -34t-51.5 -42q-14 -14 -27 -14q-24 0 -24 28 q0 15 11 31.5t23 25.5l11 9q51 31 71 39q-3 3 -16 19t-23.5 23t-23.5 7q-36 0 -89 -31t-89 -65q-8 -7 -29.5 -31.5t-60.5 -78t-76 -113.5q-54 -88 -85.5 -179.5t-31.5 -164.5zM655 1143q0 32 47.5 61t85.5 29q24 0 44 -9t30.5 -20.5t23.5 -20.5t25 -9q25 0 62 27t41 28h2 q12 0 12 -17q0 -30 -42 -56t-79 -26q-33 0 -67.5 29t-51.5 29q-28 0 -72.5 -30t-49.5 -30q-11 0 -11 15z" />
<glyph unicode="&#xd6;" horiz-adv-x="1161" d="M102 334q0 174 136 375q71 106 135.5 181t111 110.5t78 50t53.5 14.5q33 0 73 -30.5t44 -82.5q53 21 113 21q195 0 264 -185q10 -33 10 -79q0 -78 -34.5 -181.5t-94.5 -191.5q-46 -66 -103 -126.5t-129 -115.5t-158.5 -88t-172.5 -33q-47 0 -90 10t-87 35.5t-76 65 t-52.5 104t-20.5 146.5zM172 322q0 -79 23.5 -136t65 -87t88.5 -43t104 -13q48 0 82 10q52 14 111.5 46.5t124 86.5t120 120.5t98.5 156.5t60 186q4 24 4 47q0 94 -54 153.5t-137 59.5q-46 0 -96 -16q-61 -21 -83.5 -34t-51.5 -42q-14 -14 -27 -14q-24 0 -24 28 q0 15 11 31.5t23 25.5l11 9q51 31 71 39q-3 3 -16 19t-23.5 23t-23.5 7q-36 0 -89 -31t-89 -65q-8 -7 -29.5 -31.5t-60.5 -78t-76 -113.5q-54 -88 -85.5 -179.5t-31.5 -164.5zM633 1186q0 28 37 28q23 0 36 -23t13 -48q0 -12 -7 -21.5t-18 -9.5q-21 0 -41 26t-20 48z M872 1186q0 28 37 28q23 0 36 -23t13 -48q0 -12 -6.5 -21.5t-17.5 -9.5q-21 0 -41.5 26.5t-20.5 47.5z" />
<glyph unicode="&#xd7;" horiz-adv-x="802" d="M102 672q0 20 9 29t28 12q38 0 80 -60q36 -47 66.5 -82.5t59.5 -66t40 -43.5q141 147 200 201.5t81 54.5q15 0 24.5 -12.5t9.5 -30.5q0 -8 -8.5 -19.5t-31 -34t-49 -48t-75 -73.5t-96.5 -98q57 -57 113 -104q11 -10 32.5 -27.5t36 -30.5t30.5 -28t24 -27.5t8 -21.5 q0 -6 -2 -8q-6 -9 -14 -9q-11 0 -56 33q-3 2 -79.5 66.5t-96.5 77.5q-6 5 -21 16t-22 18q-136 -142 -180 -182.5t-61 -40.5t-17 19q0 28 43 82.5t160 177.5l-143 141q-6 5 -24 21.5t-26.5 25t-20.5 22.5t-17 26t-5 24z" />
<glyph unicode="&#xd9;" horiz-adv-x="1044" d="M123 348q0 25 3 56t6 54.5t11 64t12 60t15 69.5t14 65q8 39 37 144.5t41 135.5q2 4 5.5 15.5t6.5 17.5t8.5 14t14 11.5t20.5 3.5q25 0 25 -35q0 -18 -10 -53q-74 -250 -106.5 -392t-32.5 -239q0 -119 67 -201t172 -82q275 0 406 349q79 210 143 446q3 13 9 41.5t11.5 50 t13.5 45t19 36.5t25 13q16 0 25 -9t10.5 -18t1.5 -24q0 -7 -27.5 -109.5t-44.5 -158.5q-32 -104 -60 -183t-62.5 -159.5t-69 -137.5t-78 -108.5t-92 -83t-107.5 -49.5t-127 -18q-158 0 -244 131q-61 95 -61 237zM596 1233q0 9 9.5 14.5t21.5 5.5q23 0 96.5 -60.5t73.5 -72.5 q0 -8 -15 -8q-10 0 -16 2q-36 10 -103 55t-67 64z" />
<glyph unicode="&#xda;" horiz-adv-x="1044" d="M123 348q0 25 3 56t6 54.5t11 64t12 60t15 69.5t14 65q8 39 37 144.5t41 135.5q2 4 5.5 15.5t6.5 17.5t8.5 14t14 11.5t20.5 3.5q25 0 25 -35q0 -18 -10 -53q-74 -250 -106.5 -392t-32.5 -239q0 -119 67 -201t172 -82q275 0 406 349q79 210 143 446q3 13 9 41.5t11.5 50 t13.5 45t19 36.5t25 13q16 0 25 -9t10.5 -18t1.5 -24q0 -7 -27.5 -109.5t-44.5 -158.5q-32 -104 -60 -183t-62.5 -159.5t-69 -137.5t-78 -108.5t-92 -83t-107.5 -49.5t-127 -18q-158 0 -244 131q-61 95 -61 237zM627 1165q0 12 73.5 72.5t96.5 60.5q12 0 21 -5.5t9 -14.5 q0 -19 -67 -64t-103 -55q-6 -2 -18 -2t-12 8z" />
<glyph unicode="&#xdb;" horiz-adv-x="1044" d="M123 348q0 25 3 56t6 54.5t11 64t12 60t15 69.5t14 65q8 39 37 144.5t41 135.5q2 4 5.5 15.5t6.5 17.5t8.5 14t14 11.5t20.5 3.5q25 0 25 -35q0 -18 -10 -53q-74 -250 -106.5 -392t-32.5 -239q0 -119 67 -201t172 -82q275 0 406 349q79 210 143 446q3 13 9 41.5t11.5 50 t13.5 45t19 36.5t25 13q16 0 25 -9t10.5 -18t1.5 -24q0 -7 -27.5 -109.5t-44.5 -158.5q-32 -104 -60 -183t-62.5 -159.5t-69 -137.5t-78 -108.5t-92 -83t-107.5 -49.5t-127 -18q-158 0 -244 131q-61 95 -61 237zM502 1130v3q0 24 160 124q15 9 22 9h4q7 0 74.5 -43.5 t97.5 -69.5q12 -10 12 -20q0 -11 -12 -11q-27 0 -129 64q-40 24 -43 24q-15 -4 -57 -28q-92 -58 -115 -58q-6 0 -9.5 2t-4.5 4z" />
<glyph unicode="&#xdc;" horiz-adv-x="1044" d="M123 348q0 25 3 56t6 54.5t11 64t12 60t15 69.5t14 65q8 39 37 144.5t41 135.5q2 4 5.5 15.5t6.5 17.5t8.5 14t14 11.5t20.5 3.5q25 0 25 -35q0 -18 -10 -53q-74 -250 -106.5 -392t-32.5 -239q0 -119 67 -201t172 -82q275 0 406 349q79 210 143 446q3 13 9 41.5t11.5 50 t13.5 45t19 36.5t25 13q16 0 25 -9t10.5 -18t1.5 -24q0 -7 -27.5 -109.5t-44.5 -158.5q-32 -104 -60 -183t-62.5 -159.5t-69 -137.5t-78 -108.5t-92 -83t-107.5 -49.5t-127 -18q-158 0 -244 131q-61 95 -61 237zM514 1198q0 14 11 21.5t26 7.5q23 0 36 -23.5t13 -48.5 q0 -12 -7 -21.5t-18 -9.5q-21 0 -41 26t-20 48zM754 1198q0 14 11 21.5t26 7.5q23 0 36 -23.5t13 -48.5q0 -12 -7 -21.5t-18 -9.5q-21 0 -41 26t-20 48z" />
<glyph unicode="&#xdd;" d="M164 1028q0 14 8.5 29.5t22.5 15.5q10 0 23 -13t22.5 -26.5t21 -33t12.5 -21.5q127 -219 228 -334q40 59 94 149t90 146q1 1 13.5 21.5t27 42t33.5 45t39.5 38.5t38.5 15q26 -4 26 -19t-33 -59q-60 -82 -154 -224.5t-134 -219.5q10 -19 10 -35t-11.5 -26t-21 -12.5 t-14.5 -2.5q-32 -71 -91.5 -189t-74.5 -157q-13 -39 -59 -131q-25 -84 -64 -84q-10 0 -17 9t-7 21q0 58 270 594l-103 146q-29 38 -94 133t-82 127q-20 24 -20 55zM414 1124q0 12 73.5 72.5t96.5 60.5q12 0 21 -5.5t9 -14.5q0 -19 -67 -64t-103 -55q-6 -2 -18 -2t-12 8z" />
<glyph unicode="&#xe0;" d="M0 70q0 61 46 130t115 115.5t130 46.5q84 0 127 -65q40 3 57 -35q10 -24 17 -61q15 -62 59.5 -109t103.5 -47q30 0 62.5 11.5t53 23.5t22.5 12q12 0 12 -14q0 -34 -53 -55t-95 -21q-52 0 -93 18.5t-65 45t-41.5 53t-32 45t-26.5 18.5q-13 0 -31 -23t-40.5 -55.5 t-50.5 -64.5t-71 -55t-93 -23q-53 0 -83 28.5t-30 80.5zM72 80q0 -27 15 -43.5t42 -16.5q32 0 66.5 28t57.5 60.5t52 78.5t41 61q-30 51 -67 51q-63 0 -135 -78t-72 -141zM180 692q0 9 9.5 15t21.5 6q23 0 96.5 -60.5t73.5 -72.5q0 -9 -14 -9q-11 0 -17 2q-36 10 -103 55 t-67 64z" />
<glyph unicode="&#xe1;" d="M0 70q0 61 46 130t115 115.5t130 46.5q84 0 127 -65q40 3 57 -35q10 -24 17 -61q15 -62 59.5 -109t103.5 -47q30 0 62.5 11.5t53 23.5t22.5 12q12 0 12 -14q0 -34 -53 -55t-95 -21q-52 0 -93 18.5t-65 45t-41.5 53t-32 45t-26.5 18.5q-13 0 -31 -23t-40.5 -55.5 t-50.5 -64.5t-71 -55t-93 -23q-53 0 -83 28.5t-30 80.5zM72 80q0 -27 15 -43.5t42 -16.5q32 0 66.5 28t57.5 60.5t52 78.5t41 61q-30 51 -67 51q-63 0 -135 -78t-72 -141zM160 565q0 12 73.5 72.5t96.5 60.5q12 0 21 -5.5t9 -14.5q0 -19 -67 -64t-103 -55q-6 -2 -18 -2 t-12 8z" />
<glyph unicode="&#xe2;" d="M0 70q0 61 46 130t115 115.5t130 46.5q84 0 127 -65q40 3 57 -35q10 -24 17 -61q15 -62 59.5 -109t103.5 -47q30 0 62.5 11.5t53 23.5t22.5 12q12 0 12 -14q0 -34 -53 -55t-95 -21q-52 0 -93 18.5t-65 45t-41.5 53t-32 45t-26.5 18.5q-13 0 -31 -23t-40.5 -55.5 t-50.5 -64.5t-71 -55t-93 -23q-53 0 -83 28.5t-30 80.5zM72 80q0 -27 15 -43.5t42 -16.5q32 0 66.5 28t57.5 60.5t52 78.5t41 61q-30 51 -67 51q-63 0 -135 -78t-72 -141zM125 518q0 13 52.5 52t107.5 73q13 8 22 8h4q7 0 74.5 -43t97.5 -69q13 -10 13 -21q0 -10 -13 -10 q-29 0 -129 63q-42 25 -43 25q-12 -3 -57 -29q-91 -57 -115 -57q-6 0 -9.5 2t-3.5 4z" />
<glyph unicode="&#xe3;" d="M0 70q0 61 46 130t115 115.5t130 46.5q84 0 127 -65q40 3 57 -35q10 -24 17 -61q15 -62 59.5 -109t103.5 -47q30 0 62.5 11.5t53 23.5t22.5 12q12 0 12 -14q0 -34 -53 -55t-95 -21q-52 0 -93 18.5t-65 45t-41.5 53t-32 45t-26.5 18.5q-13 0 -31 -23t-40.5 -55.5 t-50.5 -64.5t-71 -55t-93 -23q-53 0 -83 28.5t-30 80.5zM72 80q0 -27 15 -43.5t42 -16.5q32 0 66.5 28t57.5 60.5t52 78.5t41 61q-30 51 -67 51q-63 0 -135 -78t-72 -141zM162 567q0 32 47 61t86 29q24 0 44 -9t30.5 -20.5t23.5 -20.5t25 -9q25 0 61.5 27t40.5 28h2 q13 0 13 -16q0 -30 -42 -56t-79 -26q-33 0 -67.5 28.5t-51.5 28.5q-28 0 -73 -29.5t-50 -29.5q-10 0 -10 14z" />
<glyph unicode="&#xe4;" d="M0 70q0 61 46 130t115 115.5t130 46.5q84 0 127 -65q40 3 57 -35q10 -24 17 -61q15 -62 59.5 -109t103.5 -47q30 0 62.5 11.5t53 23.5t22.5 12q12 0 12 -14q0 -34 -53 -55t-95 -21q-52 0 -93 18.5t-65 45t-41.5 53t-32 45t-26.5 18.5q-13 0 -31 -23t-40.5 -55.5 t-50.5 -64.5t-71 -55t-93 -23q-53 0 -83 28.5t-30 80.5zM72 80q0 -27 15 -43.5t42 -16.5q32 0 66.5 28t57.5 60.5t52 78.5t41 61q-30 51 -67 51q-63 0 -135 -78t-72 -141zM199 614q0 14 11 21.5t26 7.5q23 0 36 -23.5t13 -48.5q0 -11 -7 -20.5t-18 -9.5q-21 0 -41 25.5 t-20 47.5zM438 614q0 14 11 21.5t26 7.5q23 0 36 -23.5t13 -48.5q0 -12 -6.5 -21t-17.5 -9q-21 0 -41.5 26t-20.5 47z" />
<glyph unicode="&#xe6;" horiz-adv-x="884" d="M0 74q0 60 47 128t116 114t130 46q82 0 125 -65q42 3 59 -39q23 78 89 140.5t139 62.5q44 0 78 -24t34 -66q0 -17 -12 -45q-7 -15 -27 -29.5t-40 -25t-53.5 -23.5t-51.5 -19t-52 -16.5t-38 -11.5q-12 -4 -17 -4v-19q0 -61 36 -94.5t100 -38.5q116 0 192 55q2 1 12.5 9.5 t19.5 16t11 7.5q12 0 12 -14q0 -28 -33.5 -53t-67.5 -37t-65 -19q-39 -8 -73 -8q-51 0 -93.5 18.5t-68.5 45t-45.5 53t-34.5 45t-27 18.5q-13 0 -31.5 -23t-41 -55.5t-50.5 -64.5t-71 -55t-92 -23q-53 0 -84 30t-31 83zM72 80q0 -27 15 -43.5t42 -16.5q63 0 152 123 q10 15 30.5 51t34.5 54q-15 25 -29 38t-38 13q-62 0 -134.5 -78t-72.5 -141zM541 254q53 11 122.5 46t69.5 71q0 26 -41 26q-50 0 -93 -45t-58 -98z" />
<glyph unicode="&#xe7;" horiz-adv-x="440" d="M20 174q0 53 28 117.5t79 114t106 49.5q32 0 71.5 -20t39.5 -48q0 -10 -12 -10q-9 0 -31 15.5t-47 15.5q-62 0 -114 -83.5t-52 -150.5q0 -55 37.5 -92t93.5 -37h29q44 0 93 22.5t81 45t35 22.5q8 0 8 -12q0 -40 -47.5 -69t-101.5 -40.5t-99 -11.5q-76 0 -136.5 48.5 t-60.5 123.5zM106 -221q0 8 10.5 13t27.5 13t28 19q22 23 31 53.5t8.5 51.5t5 36t21.5 15q26 0 26 -21q0 -27 -4.5 -53t-17 -57t-41 -52.5t-68.5 -25.5q-27 0 -27 8z" />
<glyph unicode="&#xe8;" horiz-adv-x="593" d="M-25 203q0 14 33 14q72 0 172 21q2 2 2 8q18 80 86 147.5t146 67.5q44 0 78 -24t34 -66q0 -17 -12 -45q-7 -15 -27 -29.5t-40 -25t-53.5 -23.5t-51.5 -19t-52 -16.5t-38 -11.5q-12 -4 -16 -4v-19q0 -61 35.5 -94.5t97.5 -38.5h2q116 0 192 55q2 1 12.5 9.5t19.5 16 t11 7.5q12 0 12 -14q0 -28 -33.5 -53t-67 -37t-64.5 -19q-39 -8 -84 -8q-81 0 -139 49.5t-58 128.5q-79 -14 -137 -14q-18 0 -39 10t-21 27zM248 686q0 9 9.5 15t21.5 6q23 0 96.5 -61t73.5 -73q0 -8 -15 -8q-10 0 -16 2q-36 10 -103 55t-67 64zM250 254q53 11 122.5 46 t69.5 71q0 26 -41 26q-50 0 -93 -45t-58 -98z" />
<glyph unicode="&#xe9;" horiz-adv-x="593" d="M-25 203q0 14 33 14q72 0 172 21q2 2 2 8q18 80 86 147.5t146 67.5q44 0 78 -24t34 -66q0 -17 -12 -45q-7 -15 -27 -29.5t-40 -25t-53.5 -23.5t-51.5 -19t-52 -16.5t-38 -11.5q-12 -4 -16 -4v-19q0 -61 35.5 -94.5t97.5 -38.5h2q116 0 192 55q2 1 12.5 9.5t19.5 16 t11 7.5q12 0 12 -14q0 -28 -33.5 -53t-67 -37t-64.5 -19q-39 -8 -84 -8q-81 0 -139 49.5t-58 128.5q-79 -14 -137 -14q-18 0 -39 10t-21 27zM250 254q53 11 122.5 46t69.5 71q0 26 -41 26q-50 0 -93 -45t-58 -98zM305 565q0 12 73.5 72.5t96.5 60.5q12 0 21.5 -5.5 t9.5 -14.5q0 -19 -67 -64t-103 -55q-6 -2 -19 -2q-12 0 -12 8z" />
<glyph unicode="&#xea;" horiz-adv-x="593" d="M-25 203q0 14 33 14q72 0 172 21q2 2 2 8q18 80 86 147.5t146 67.5q44 0 78 -24t34 -66q0 -17 -12 -45q-7 -15 -27 -29.5t-40 -25t-53.5 -23.5t-51.5 -19t-52 -16.5t-38 -11.5q-12 -4 -16 -4v-19q0 -61 35.5 -94.5t97.5 -38.5h2q116 0 192 55q2 1 12.5 9.5t19.5 16 t11 7.5q12 0 12 -14q0 -28 -33.5 -53t-67 -37t-64.5 -19q-39 -8 -84 -8q-81 0 -139 49.5t-58 128.5q-79 -14 -137 -14q-18 0 -39 10t-21 27zM225 629q0 13 52.5 52t107.5 73q13 8 23 8h4q7 0 74.5 -43.5t97.5 -69.5q12 -10 12 -20q0 -11 -12 -11q-27 0 -129 64 q-42 25 -43 25q-14 -4 -58 -29q-91 -57 -114 -57q-6 0 -10 2t-4 4zM250 254q53 11 122.5 46t69.5 71q0 26 -41 26q-50 0 -93 -45t-58 -98z" />
<glyph unicode="&#xeb;" horiz-adv-x="593" d="M-25 203q0 14 33 14q72 0 172 21q2 2 2 8q18 80 86 147.5t146 67.5q44 0 78 -24t34 -66q0 -17 -12 -45q-7 -15 -27 -29.5t-40 -25t-53.5 -23.5t-51.5 -19t-52 -16.5t-38 -11.5q-12 -4 -16 -4v-19q0 -61 35.5 -94.5t97.5 -38.5h2q116 0 192 55q2 1 12.5 9.5t19.5 16 t11 7.5q12 0 12 -14q0 -28 -33.5 -53t-67 -37t-64.5 -19q-39 -8 -84 -8q-81 0 -139 49.5t-58 128.5q-79 -14 -137 -14q-18 0 -39 10t-21 27zM246 674q0 28 37 28q23 0 36 -23t13 -48q0 -12 -7 -21.5t-18 -9.5q-21 0 -41 26t-20 48zM250 254q53 11 122.5 46t69.5 71 q0 26 -41 26q-50 0 -93 -45t-58 -98zM485 674q0 28 37 28q23 0 36 -23t13 -48q0 -12 -6.5 -21.5t-17.5 -9.5q-21 0 -41.5 26.5t-20.5 47.5z" />
<glyph unicode="&#xec;" horiz-adv-x="753" d="M-102 18q0 15 39 15q86 0 141 22q92 36 180 124t129 181q21 52 37 70q3 2 8 6t7.5 5.5t8 3t11.5 1.5q14 0 26 -12q15 -15 15 -55q0 -34 12 -100q35 -185 170 -185q20 0 47 9.5t41 9.5q8 0 8 -11q0 -26 -34.5 -37.5t-67.5 -11.5q-71 0 -124.5 44t-78.5 106t-27 131 q-27 -62 -88.5 -131.5t-124.5 -118.5q-126 -98 -260 -98q-23 0 -49 7t-26 25zM362 692q0 9 9.5 15t21.5 6q23 0 96.5 -60.5t73.5 -72.5q0 -9 -14 -9q-11 0 -17 2q-36 10 -103 55t-67 64z" />
<glyph unicode="&#xed;" horiz-adv-x="753" d="M-102 18q0 15 39 15q86 0 141 22q92 36 180 124t129 181q21 52 37 70q3 2 8 6t7.5 5.5t8 3t11.5 1.5q14 0 26 -12q15 -15 15 -55q0 -34 12 -100q35 -185 170 -185q20 0 47 9.5t41 9.5q8 0 8 -11q0 -26 -34.5 -37.5t-67.5 -11.5q-71 0 -124.5 44t-78.5 106t-27 131 q-27 -62 -88.5 -131.5t-124.5 -118.5q-126 -98 -260 -98q-23 0 -49 7t-26 25zM391 565q0 12 73.5 72.5t96.5 60.5q12 0 21.5 -5.5t9.5 -14.5q0 -19 -67 -64t-103 -55q-6 -2 -19 -2q-12 0 -12 8z" />
<glyph unicode="&#xee;" horiz-adv-x="753" d="M-102 18q0 15 39 15q86 0 141 22q92 36 180 124t129 181q21 52 37 70q3 2 8 6t7.5 5.5t8 3t11.5 1.5q14 0 26 -12q15 -15 15 -55q0 -34 12 -100q35 -185 170 -185q20 0 47 9.5t41 9.5q8 0 8 -11q0 -26 -34.5 -37.5t-67.5 -11.5q-71 0 -124.5 44t-78.5 106t-27 131 q-27 -62 -88.5 -131.5t-124.5 -118.5q-126 -98 -260 -98q-23 0 -49 7t-26 25zM266 582v2q0 13 52.5 52t107.5 73q13 8 23 8h4q7 0 74.5 -43.5t97.5 -69.5q12 -10 12 -20q0 -11 -12 -11q-27 0 -129 64q-42 25 -43 25q-14 -4 -58 -29q-92 -58 -114 -58q-6 0 -10 2.5t-5 4.5z " />
<glyph unicode="&#xef;" horiz-adv-x="753" d="M-102 18q0 15 39 15q86 0 141 22q92 36 180 124t129 181q21 52 37 70q3 2 8 6t7.5 5.5t8 3t11.5 1.5q14 0 26 -12q15 -15 15 -55q0 -34 12 -100q35 -185 170 -185q20 0 47 9.5t41 9.5q8 0 8 -11q0 -26 -34.5 -37.5t-67.5 -11.5q-71 0 -124.5 44t-78.5 106t-27 131 q-27 -62 -88.5 -131.5t-124.5 -118.5q-126 -98 -260 -98q-23 0 -49 7t-26 25zM301 690q0 14 11 21.5t26 7.5q23 0 36 -23.5t13 -48.5q0 -12 -7 -21.5t-18 -9.5q-21 0 -41 26t-20 48zM541 690q0 14 11 21.5t26 7.5q23 0 36 -23.5t13 -48.5q0 -12 -7 -21.5t-18 -9.5 q-21 0 -41 26t-20 48z" />
<glyph unicode="&#xf1;" horiz-adv-x="802" d="M-25 276q0 30 76 72.5t115 42.5q45 0 70.5 -30.5t25.5 -75.5q0 -32 -20.5 -101.5t-20.5 -99.5q0 -25 12 -25q2 0 5 1t4 1l12 13q18 18 71 92.5t102.5 128t84.5 53.5q55 0 88 -112q5 -18 11 -50t11.5 -51t16.5 -40t32.5 -32.5t53.5 -13.5h12q14 0 39.5 8.5t38.5 8.5 q12 0 12 -11q0 -24 -38 -38.5t-68 -14.5q-78 0 -113 47q-12 16 -23 38t-16.5 36t-15 45t-12.5 39q-22 65 -45 65q-19 0 -53 -43t-67.5 -95t-76 -95t-74.5 -43q-30 0 -44.5 22.5t-14.5 53.5q0 35 17.5 103.5t17.5 98.5q0 58 -37 58q-31 0 -91 -37t-77 -37q-7 0 -14 5.5 t-7 12.5zM229 526q0 32 47.5 61t85.5 29q31 0 54 -15t39 -29.5t30 -14.5q25 0 62 27t41 28h2q12 0 12 -16q0 -30 -42 -56t-79 -26q-33 0 -67.5 28.5t-51.5 28.5q-28 0 -72.5 -29.5t-49.5 -29.5q-11 0 -11 14z" />
<glyph unicode="&#xf2;" horiz-adv-x="581" d="M20 106q0 118 107 246q35 43 80 76t86 33t62.5 -33t21.5 -76q59 -30 59 -102q0 -19 -4 -43q16 -6 72 -10q29 -2 74 -2q9 0 18.5 -5.5t9.5 -13.5q0 -9 -9 -17.5t-19 -8.5h-54q-60 0 -106 10q-32 -86 -105 -148.5t-163 -62.5q-62 0 -96 46.5t-34 110.5zM86 94 q0 -39 21.5 -61.5t60.5 -22.5q69 0 123 49t74 117q-51 15 -84 51t-33 76q0 31 22 47.5t54 16.5q-11 22 -31 22q-19 0 -47 -16q-65 -35 -112.5 -119.5t-47.5 -159.5zM242 678q0 9 9 14.5t21 5.5q23 0 96.5 -60.5t73.5 -72.5q0 -8 -14 -8q-10 0 -16 2q-36 10 -103 55t-67 64z M303 293q0 -23 22.5 -44t49.5 -24q2 10 2 29q0 22 -17.5 40.5t-42.5 18.5q-14 0 -14 -20z" />
<glyph unicode="&#xf3;" horiz-adv-x="581" d="M20 106q0 118 107 246q35 43 80 76t86 33t62.5 -33t21.5 -76q59 -30 59 -102q0 -19 -4 -43q16 -6 72 -10q29 -2 74 -2q9 0 18.5 -5.5t9.5 -13.5q0 -9 -9 -17.5t-19 -8.5h-54q-60 0 -106 10q-32 -86 -105 -148.5t-163 -62.5q-62 0 -96 46.5t-34 110.5zM86 94 q0 -39 21.5 -61.5t60.5 -22.5q69 0 123 49t74 117q-51 15 -84 51t-33 76q0 31 22 47.5t54 16.5q-11 22 -31 22q-19 0 -47 -16q-65 -35 -112.5 -119.5t-47.5 -159.5zM221 565q0 12 73.5 72.5t96.5 60.5q12 0 21.5 -5.5t9.5 -14.5q0 -19 -67 -64t-103 -55q-6 -2 -19 -2 q-12 0 -12 8zM303 293q0 -23 22.5 -44t49.5 -24q2 10 2 29q0 22 -17.5 40.5t-42.5 18.5q-14 0 -14 -20z" />
<glyph unicode="&#xf4;" horiz-adv-x="581" d="M20 106q0 118 107 246q35 43 80 76t86 33t62.5 -33t21.5 -76q59 -30 59 -102q0 -19 -4 -43q16 -6 72 -10q29 -2 74 -2q9 0 18.5 -5.5t9.5 -13.5q0 -9 -9 -17.5t-19 -8.5h-54q-60 0 -106 10q-32 -86 -105 -148.5t-163 -62.5q-62 0 -96 46.5t-34 110.5zM86 94 q0 -39 21.5 -61.5t60.5 -22.5q69 0 123 49t74 117q-51 15 -84 51t-33 76q0 31 22 47.5t54 16.5q-11 22 -31 22q-19 0 -47 -16q-65 -35 -112.5 -119.5t-47.5 -159.5zM127 549q0 13 52.5 52t107.5 73q13 8 22 8h4q7 0 74.5 -43.5t97.5 -69.5q13 -10 13 -20t-13 -10 q-29 0 -129 63q-42 25 -43 25q-12 -3 -57 -29q-91 -57 -115 -57q-6 0 -9.5 2t-3.5 4zM303 293q0 -23 22.5 -44t49.5 -24q2 10 2 29q0 22 -17.5 40.5t-42.5 18.5q-14 0 -14 -20z" />
<glyph unicode="&#xf5;" horiz-adv-x="581" d="M20 106q0 118 107 246q35 43 80 76t86 33t62.5 -33t21.5 -76q59 -30 59 -102q0 -19 -4 -43q16 -6 72 -10q29 -2 74 -2q9 0 18.5 -5.5t9.5 -13.5q0 -9 -9 -17.5t-19 -8.5h-54q-60 0 -106 10q-32 -86 -105 -148.5t-163 -62.5q-62 0 -96 46.5t-34 110.5zM86 94 q0 -39 21.5 -61.5t60.5 -22.5q69 0 123 49t74 117q-51 15 -84 51t-33 76q0 31 22 47.5t54 16.5q-11 22 -31 22q-19 0 -47 -16q-65 -35 -112.5 -119.5t-47.5 -159.5zM139 561q0 32 47.5 61t85.5 29q24 0 44 -9t30.5 -20.5t23.5 -20.5t25 -9q25 0 62 27t41 28h2q12 0 12 -16 q0 -30 -42 -56t-79 -26q-33 0 -67.5 28.5t-51.5 28.5q-28 0 -72.5 -29.5t-49.5 -29.5q-11 0 -11 14zM303 293q0 -23 22.5 -44t49.5 -24q2 10 2 29q0 22 -17.5 40.5t-42.5 18.5q-14 0 -14 -20z" />
<glyph unicode="&#xf6;" horiz-adv-x="581" d="M20 106q0 118 107 246q35 43 80 76t86 33t62.5 -33t21.5 -76q59 -30 59 -102q0 -19 -4 -43q16 -6 72 -10q29 -2 74 -2q9 0 18.5 -5.5t9.5 -13.5q0 -9 -9 -17.5t-19 -8.5h-54q-60 0 -106 10q-32 -86 -105 -148.5t-163 -62.5q-62 0 -96 46.5t-34 110.5zM86 94 q0 -39 21.5 -61.5t60.5 -22.5q69 0 123 49t74 117q-51 15 -84 51t-33 76q0 31 22 47.5t54 16.5q-11 22 -31 22q-19 0 -47 -16q-65 -35 -112.5 -119.5t-47.5 -159.5zM131 643q0 14 11 21.5t26 7.5q23 0 36 -23.5t13 -48.5q0 -12 -6.5 -21.5t-17.5 -9.5q-21 0 -41.5 26.5 t-20.5 47.5zM303 293q0 -23 22.5 -44t49.5 -24q2 10 2 29q0 22 -17.5 40.5t-42.5 18.5q-14 0 -14 -20zM371 643q0 14 11 21.5t26 7.5q23 0 36 -23.5t13 -48.5q0 -12 -7 -21.5t-18 -9.5q-21 0 -41 26t-20 48z" />
<glyph unicode="&#xf7;" horiz-adv-x="927" d="M102 481q0 31 68.5 39t304.5 8q240 0 299 -12q51 -15 51 -35q0 -8 -10.5 -14t-28.5 -6q4 0 -58 -2.5t-153.5 -6.5t-184 -7.5t-159 -6t-69.5 -2.5q-28 0 -44 14t-16 31zM393 727q0 27 13 37q2 0 7 4t9 4q20 0 36.5 -21t16.5 -42q0 -12 -7.5 -20.5t-18.5 -8.5q-17 0 -36 14 t-20 33zM416 244q0 18 14 28q3 9 19 9q19 0 35 -20.5t16 -41.5q0 -13 -8.5 -22t-20.5 -9q-18 0 -36.5 17.5t-18.5 38.5z" />
<glyph unicode="&#xf9;" horiz-adv-x="745" d="M20 131q0 35 9.5 93t33.5 115.5t56 57.5q17 0 26 -10.5t9 -26.5q0 -17 -33 -96.5t-33 -136.5q0 -52 26 -84.5t76 -32.5q38 0 68 21q25 17 46.5 38.5t35.5 38.5t31 46.5t24.5 45t24.5 52.5t24 51q13 26 33.5 47t42.5 21q27 0 39 -26t12 -58q0 -12 -3 -38t-3 -40 q0 -31 5.5 -59t18 -54t36.5 -41.5t57 -15.5q14 0 40 6t40 6q8 0 8 -8q0 -22 -32.5 -35.5t-59.5 -13.5q-45 0 -80.5 23.5t-57.5 61t-34.5 78.5t-16.5 83q-21 -51 -50 -98.5t-68 -92.5t-89.5 -72.5t-103.5 -27.5q-78 0 -118 51.5t-40 130.5zM307 608q0 9 9.5 15t21.5 6 q23 0 96.5 -60.5t73.5 -72.5q0 -9 -14 -9q-11 0 -17 2q-36 10 -103 55t-67 64z" />
<glyph unicode="&#xfa;" horiz-adv-x="745" d="M20 131q0 35 9.5 93t33.5 115.5t56 57.5q17 0 26 -10.5t9 -26.5q0 -17 -33 -96.5t-33 -136.5q0 -52 26 -84.5t76 -32.5q38 0 68 21q25 17 46.5 38.5t35.5 38.5t31 46.5t24.5 45t24.5 52.5t24 51q13 26 33.5 47t42.5 21q27 0 39 -26t12 -58q0 -12 -3 -38t-3 -40 q0 -31 5.5 -59t18 -54t36.5 -41.5t57 -15.5q14 0 40 6t40 6q8 0 8 -8q0 -22 -32.5 -35.5t-59.5 -13.5q-45 0 -80.5 23.5t-57.5 61t-34.5 78.5t-16.5 83q-21 -51 -50 -98.5t-68 -92.5t-89.5 -72.5t-103.5 -27.5q-78 0 -118 51.5t-40 130.5zM299 485q0 12 73.5 72.5t96.5 60.5 q12 0 21.5 -5.5t9.5 -14.5q0 -19 -67 -64t-103 -55q-6 -2 -19 -2q-12 0 -12 8z" />
<glyph unicode="&#xfb;" horiz-adv-x="745" d="M20 131q0 35 9.5 93t33.5 115.5t56 57.5q17 0 26 -10.5t9 -26.5q0 -17 -33 -96.5t-33 -136.5q0 -52 26 -84.5t76 -32.5q38 0 68 21q25 17 46.5 38.5t35.5 38.5t31 46.5t24.5 45t24.5 52.5t24 51q13 26 33.5 47t42.5 21q27 0 39 -26t12 -58q0 -12 -3 -38t-3 -40 q0 -31 5.5 -59t18 -54t36.5 -41.5t57 -15.5q14 0 40 6t40 6q8 0 8 -8q0 -22 -32.5 -35.5t-59.5 -13.5q-45 0 -80.5 23.5t-57.5 61t-34.5 78.5t-16.5 83q-21 -51 -50 -98.5t-68 -92.5t-89.5 -72.5t-103.5 -27.5q-78 0 -118 51.5t-40 130.5zM162 502v2q0 13 52.5 52t107.5 73 q13 8 22 8h4q7 0 74.5 -43.5t97.5 -69.5q12 -10 12 -20t-12 -10q-29 0 -129 63q-42 25 -43 25q-12 -3 -57 -29q-91 -57 -115 -57q-6 0 -9.5 2t-4.5 4z" />
<glyph unicode="&#xfc;" horiz-adv-x="745" d="M20 131q0 35 9.5 93t33.5 115.5t56 57.5q17 0 26 -10.5t9 -26.5q0 -17 -33 -96.5t-33 -136.5q0 -52 26 -84.5t76 -32.5q38 0 68 21q25 17 46.5 38.5t35.5 38.5t31 46.5t24.5 45t24.5 52.5t24 51q13 26 33.5 47t42.5 21q27 0 39 -26t12 -58q0 -12 -3 -38t-3 -40 q0 -31 5.5 -59t18 -54t36.5 -41.5t57 -15.5q14 0 40 6t40 6q8 0 8 -8q0 -22 -32.5 -35.5t-59.5 -13.5q-45 0 -80.5 23.5t-57.5 61t-34.5 78.5t-16.5 83q-21 -51 -50 -98.5t-68 -92.5t-89.5 -72.5t-103.5 -27.5q-78 0 -118 51.5t-40 130.5zM190 606q0 14 11 21.5t26 7.5 q23 0 36 -23.5t13 -48.5q0 -12 -6.5 -21.5t-17.5 -9.5q-21 0 -41.5 26.5t-20.5 47.5zM430 606q0 14 11 21.5t26 7.5q23 0 36 -23.5t13 -48.5q0 -12 -6.5 -21.5t-17.5 -9.5q-21 0 -41.5 26.5t-20.5 47.5z" />
<glyph unicode="&#xfd;" horiz-adv-x="944" d="M-115 -772q0 188 211 375q182 162 414 301q30 177 49 442q-228 -264 -362 -264q-146 0 -146 258q0 109 43 109q18 0 27.5 -14.5t10.5 -27.5t1 -34t-4 -61t-4 -60q0 -113 82 -113q11 0 22 2t22.5 7.5t19 9t21.5 11.5t19 11l64 47q12 10 24.5 23.5t21.5 23.5t22.5 28t20 26 t21.5 28.5t19 26.5q12 23 39 49q16 19 43 19q55 0 55 -86q0 -26 -3.5 -55t-10.5 -66t-9 -54q-1 -6 -36 -245q4 2 32 18.5t45.5 26.5t51.5 28.5t58 31.5t55.5 28t54.5 24.5t44.5 16t34.5 6.5q10 0 18.5 -7.5t8.5 -17.5q0 -4 -4 -12l-4 -6t-4.5 -5t-4 -4t-5.5 -3.5t-5 -2.5 t-5.5 -2.5t-5.5 -1.5t-6.5 -2t-6.5 -2q-181 -55 -363 -176l-8 -41q-11 -63 -18 -98t-21 -100t-25.5 -105.5t-31.5 -100.5t-40 -100.5t-49 -89.5t-61 -84t-73 -68.5t-88 -56.5q-46 -24 -99 -24q-81 0 -126.5 64t-45.5 149zM-43 -774q0 -55 30 -96t83 -41q8 0 28 4 q67 18 127 71t101 119q47 73 84 179.5t52.5 178t37.5 195.5q-36 -27 -102.5 -73t-119.5 -86t-96 -80q-89 -79 -157 -179t-68 -192zM291 557q0 12 73.5 72.5t96.5 60.5q12 0 21.5 -5.5t9.5 -14.5q0 -19 -67 -64t-103 -55q-6 -2 -19 -2q-12 0 -12 8z" />
<glyph unicode="&#xff;" horiz-adv-x="944" d="M-115 -772q0 188 211 375q182 162 414 301q30 177 49 442q-228 -264 -362 -264q-146 0 -146 258q0 109 43 109q18 0 27.5 -14.5t10.5 -27.5t1 -34t-4 -61t-4 -60q0 -113 82 -113q11 0 22 2t22.5 7.5t19 9t21.5 11.5t19 11l64 47q12 10 24.5 23.5t21.5 23.5t22.5 28t20 26 t21.5 28.5t19 26.5q12 23 39 49q16 19 43 19q55 0 55 -86q0 -26 -3.5 -55t-10.5 -66t-9 -54q-1 -6 -36 -245q4 2 32 18.5t45.5 26.5t51.5 28.5t58 31.5t55.5 28t54.5 24.5t44.5 16t34.5 6.5q10 0 18.5 -7.5t8.5 -17.5q0 -4 -4 -12l-4 -6t-4.5 -5t-4 -4t-5.5 -3.5t-5 -2.5 t-5.5 -2.5t-5.5 -1.5t-6.5 -2t-6.5 -2q-181 -55 -363 -176l-8 -41q-11 -63 -18 -98t-21 -100t-25.5 -105.5t-31.5 -100.5t-40 -100.5t-49 -89.5t-61 -84t-73 -68.5t-88 -56.5q-46 -24 -99 -24q-81 0 -126.5 64t-45.5 149zM-43 -774q0 -55 30 -96t83 -41q8 0 28 4 q67 18 127 71t101 119q47 73 84 179.5t52.5 178t37.5 195.5q-36 -27 -102.5 -73t-119.5 -86t-96 -80q-89 -79 -157 -179t-68 -192zM190 752q0 28 37 28q23 0 36 -23t13 -48q0 -12 -6.5 -21.5t-17.5 -9.5q-21 0 -41.5 26.5t-20.5 47.5zM430 752q0 28 37 28q23 0 36 -23 t13 -48q0 -12 -6.5 -21.5t-17.5 -9.5q-21 0 -41.5 26.5t-20.5 47.5z" />
<glyph unicode="&#x152;" horiz-adv-x="1439" d="M102 322q0 176 138 376q76 112 119 161t104 104q96 88 155 88q34 0 72.5 -30t38.5 -83q34 13 55.5 17.5t43.5 6t103.5 5.5t178.5 12q81 6 158 16.5t94 10.5q37 0 37 -17q0 -25 -96.5 -46t-180 -29.5t-100.5 -8.5q98 -79 98 -207q0 -80 -28 -163q225 31 260 34h16 q29 0 29 -24q0 -22 -21 -31q-17 -7 -132.5 -24.5t-178.5 -24.5q-40 -97 -118 -195.5t-173 -171.5q38 4 204.5 29.5t287.5 48.5q28 5 88 8q8 0 14 -5.5t6 -14.5q0 -15 -12.5 -26t-40.5 -18.5t-55.5 -12.5t-74.5 -13.5t-81 -15.5q-40 -8 -120.5 -20.5t-141.5 -20.5l-60 -8 q-124 -11 -133 -11h-12q-111 -53 -209 -53q-45 0 -87.5 9.5t-88 34.5t-79.5 64t-55.5 103t-21.5 146zM176 324q0 -73 23 -130t62.5 -91.5t87.5 -52t102 -17.5q39 0 92.5 17.5t118 53t135.5 101.5t131 151q60 86 93.5 163t33.5 167q0 96 -57 154.5t-142 58.5q-44 0 -78 -12 q-70 -23 -96 -35t-53 -39q-14 -12 -27 -12q-18 0 -18 22q0 14 11 29.5t21 23.5l11 9q32 22 71 41q-8 5 -18.5 18.5t-22 22t-28.5 8.5q-64 0 -164 -90q-15 -13 -36.5 -35t-65 -76.5t-80.5 -114.5q-107 -174 -107 -335z" />
<glyph unicode="&#x153;" horiz-adv-x="790" d="M20 106q0 118 107 246q35 43 80 76t86 33t62.5 -33t21.5 -76q24 -12 39 -33q34 56 86 93t108 37q43 0 78 -24.5t35 -66.5q0 -17 -12 -45q-22 -44 -108 -86t-152 -45q-3 0 -9.5 1t-9.5 1v-18q0 -61 35.5 -94.5t97.5 -38.5h2q117 0 193 55q2 1 12.5 9.5t19.5 16t11 7.5 q12 0 12 -15q0 -28 -33.5 -52.5t-67.5 -36.5t-65 -19q-39 -8 -84 -8q-61 0 -110 28t-72 78q-41 -64 -102.5 -105.5t-130.5 -41.5q-62 0 -96 46.5t-34 110.5zM86 94q0 -39 21.5 -61.5t60.5 -22.5q68 0 124.5 54t76.5 124q-53 16 -87 46.5t-34 68.5q0 31 22 47.5t54 16.5 q-11 22 -31 22q-19 0 -47 -16q-65 -35 -112.5 -119.5t-47.5 -159.5zM303 293q0 -22 23.5 -37t52.5 -18q0 18 -4 26q-20 49 -58 49q-14 0 -14 -20zM444 231q63 -10 129 36.5t66 90.5q0 27 -41 27q-50 0 -94 -50t-60 -104z" />
<glyph unicode="&#x178;" d="M164 1028q0 14 8.5 29.5t22.5 15.5q10 0 23 -13t22.5 -26.5t21 -33t12.5 -21.5q127 -219 228 -334q40 59 94 149t90 146q1 1 13.5 21.5t27 42t33.5 45t39.5 38.5t38.5 15q26 -4 26 -19t-33 -59q-60 -82 -154 -224.5t-134 -219.5q10 -19 10 -35t-11.5 -26t-21 -12.5 t-14.5 -2.5q-32 -71 -91.5 -189t-74.5 -157q-13 -39 -59 -131q-25 -84 -64 -84q-10 0 -17 9t-7 21q0 58 270 594l-103 146q-29 38 -94 133t-82 127q-20 24 -20 55zM340 1208q0 14 11 21.5t26 7.5q23 0 36 -23.5t13 -48.5q0 -11 -7 -20.5t-18 -9.5q-21 0 -41 25.5t-20 47.5z M580 1208q0 14 10.5 21.5t25.5 7.5q23 0 36.5 -23.5t13.5 -48.5q0 -11 -7 -20.5t-18 -9.5q-21 0 -41 25.5t-20 47.5z" />
<glyph unicode="&#x2c6;" horiz-adv-x="575" d="M102 582v2q0 13 52.5 52t107.5 73q13 8 23 8h4q7 0 74.5 -43.5t97.5 -69.5q12 -10 12 -20q0 -11 -12 -11q-27 0 -129 64q-42 25 -43 25q-14 -4 -58 -29q-92 -58 -114 -58q-6 0 -10 2.5t-5 4.5z" />
<glyph unicode="&#x2dc;" horiz-adv-x="577" d="M102 596q0 32 47.5 61t86.5 29q31 0 53.5 -15t38.5 -29.5t30 -14.5q25 0 62 27t41 28h2q12 0 12 -16q0 -30 -42 -56t-79 -26q-33 0 -67 28.5t-51 28.5q-28 0 -73 -29.5t-50 -29.5q-11 0 -11 14z" />
<glyph unicode="&#x2000;" horiz-adv-x="739" />
<glyph unicode="&#x2001;" horiz-adv-x="1479" />
<glyph unicode="&#x2002;" horiz-adv-x="739" />
<glyph unicode="&#x2003;" horiz-adv-x="1479" />
<glyph unicode="&#x2004;" horiz-adv-x="493" />
<glyph unicode="&#x2005;" horiz-adv-x="369" />
<glyph unicode="&#x2006;" horiz-adv-x="246" />
<glyph unicode="&#x2007;" horiz-adv-x="246" />
<glyph unicode="&#x2008;" horiz-adv-x="184" />
<glyph unicode="&#x2009;" horiz-adv-x="295" />
<glyph unicode="&#x200a;" horiz-adv-x="82" />
<glyph unicode="&#x2010;" horiz-adv-x="913" d="M205 260q0 27 51 29q94 4 356 4h56q15 0 28 -6.5t13 -14.5q0 -28 -41 -28q-420 -8 -432 -8q-14 0 -22.5 7t-8.5 17z" />
<glyph unicode="&#x2011;" horiz-adv-x="913" d="M205 260q0 27 51 29q94 4 356 4h56q15 0 28 -6.5t13 -14.5q0 -28 -41 -28q-420 -8 -432 -8q-14 0 -22.5 7t-8.5 17z" />
<glyph unicode="&#x2012;" horiz-adv-x="913" d="M205 260q0 27 51 29q94 4 356 4h56q15 0 28 -6.5t13 -14.5q0 -28 -41 -28q-420 -8 -432 -8q-14 0 -22.5 7t-8.5 17z" />
<glyph unicode="&#x2013;" horiz-adv-x="751" d="M12 250q0 27 51 29q47 2 582 2h55q15 0 28 -6.5t13 -14.5q0 -29 -41 -29q-645 -6 -657 -6q-14 0 -22.5 7.5t-8.5 17.5z" />
<glyph unicode="&#x2014;" horiz-adv-x="1443" d="M-29 274q0 27 52 29q47 2 1374 2h55q15 0 28 -6.5t13 -13.5q0 -29 -41 -29q-1438 -6 -1450 -6q-14 0 -22.5 7t-8.5 17z" />
<glyph unicode="&#x2018;" horiz-adv-x="507" d="M205 874q0 38 15 82.5t40 67.5q18 18 35 18q8 -4 8 -14q0 -8 -11 -42.5t-13 -55.5q0 -4 1 -20t0 -23.5t-4 -18.5t-11.5 -16.5t-22.5 -7.5q-37 0 -37 30z" />
<glyph unicode="&#x2019;" horiz-adv-x="509" d="M205 852q0 10 11 44t13 52q0 5 -0.5 17t0 17.5t1 15.5t3 15t6.5 10.5t11 8t16 2.5q22 0 30.5 -8t8.5 -29q0 -36 -16.5 -77.5t-40.5 -65.5q-19 -16 -31 -16q-12 3 -12 14z" />
<glyph unicode="&#x201a;" horiz-adv-x="509" d="M205 -119q0 10 11 44t13 52q0 5 -0.5 17t0 17.5t1 15.5t3 15t6.5 10.5t11 8t16 2.5q22 0 30.5 -7.5t8.5 -28.5q0 -36 -17 -78.5t-40 -65.5q-19 -16 -31 -16q-12 3 -12 14z" />
<glyph unicode="&#x201c;" horiz-adv-x="679" d="M205 874q0 38 15 82.5t40 67.5q18 18 35 18q8 -4 8 -14q0 -8 -11 -42.5t-13 -55.5q0 -4 1 -20t0 -23.5t-4 -18.5t-11.5 -16.5t-22.5 -7.5q-37 0 -37 30zM375 883q0 35 17 77t40 64q18 18 31 18q12 -4 12 -14q0 -7 -11 -42.5t-13 -55.5q0 -2 0.5 -19.5t-0.5 -24.5 t-4 -19.5t-11.5 -17.5t-21.5 -5q-22 0 -30.5 8.5t-8.5 30.5z" />
<glyph unicode="&#x201d;" horiz-adv-x="679" d="M205 852q0 10 11 44t13 52q0 5 -0.5 17t0 17.5t1 15.5t3 15t6.5 10.5t11 8t16 2.5q22 0 30.5 -8t8.5 -29q0 -36 -16.5 -77.5t-40.5 -65.5q-19 -16 -31 -16q-12 3 -12 14zM377 852q0 11 11 44t13 52q0 6 -0.5 20t-0.5 21t2 17t5.5 15t11.5 9t19 4q37 0 37 -26 q0 -40 -15.5 -85t-39.5 -69q-19 -16 -35 -16q-8 4 -8 14z" />
<glyph unicode="&#x201e;" horiz-adv-x="679" d="M205 -111q0 10 11 44.5t13 52.5q0 5 -0.5 17t0 17.5t1 15.5t3 15t6.5 10.5t11 8t16 2.5q22 0 30.5 -8t8.5 -29q0 -36 -17 -78.5t-40 -65.5q-19 -16 -31 -16q-12 3 -12 14zM377 -111q0 11 11 44.5t13 52.5q0 6 -0.5 20t-0.5 21t2 17t5.5 15t11.5 9t19 4q37 0 37 -27 q0 -40 -15.5 -85t-39.5 -69q-19 -16 -35 -16q-8 4 -8 14z" />
<glyph unicode="&#x2022;" horiz-adv-x="411" d="M102 381q0 35 37 68q31 22 66 22q45 0 74.5 -29.5t29.5 -62.5q0 -36 -31 -68t-77 -32q-41 0 -70 32.5t-29 69.5z" />
<glyph unicode="&#x2026;" horiz-adv-x="1318" d="M205 45q0 24 12 31q12 12 31 12q23 0 39 -17t16 -36q0 -16 -11 -30.5t-32 -14.5q-55 0 -55 55zM610 45q0 23 13 31q12 12 30 12q23 0 39.5 -17t16.5 -36q0 -16 -11 -30.5t-32 -14.5q-56 0 -56 55zM1016 45q0 24 12 31q12 12 31 12q23 0 39 -17t16 -36q0 -16 -11 -30.5 t-32 -14.5q-55 0 -55 55z" />
<glyph unicode="&#x202f;" horiz-adv-x="295" />
<glyph unicode="&#x205f;" horiz-adv-x="369" />
<glyph unicode="&#x20ac;" horiz-adv-x="1097" d="M20 397q0 13 10 21t30 11t40 3.5t50.5 1t50.5 2.5q-2 14 -2 43q0 37 2 53q-23 -4 -54 -4q-67 5 -67 33q0 11 3 18t14.5 15.5t41.5 13t78 4.5q39 166 166.5 268.5t284.5 102.5q135 0 209 -82q18 -18 18 -33q0 -18 -23 -18q-5 0 -30 10q-91 58 -185 58q-120 0 -231 -89 t-135 -215q379 19 403 19q43 0 43 -19q0 -28 -98.5 -44.5t-185.5 -18.5q-30 -3 -96 -9t-85 -7v-95q68 7 228 21t180 16q18 0 25.5 -0.5t16.5 -6t9 -17.5q0 -19 -55 -31.5t-133.5 -20.5t-87.5 -10q-31 -1 -94.5 -8t-73.5 -8q20 -97 78 -168t127.5 -103t140.5 -32 q44 0 79.5 6.5t51.5 11.5t52 22t50 23q12 6 25 6q18 0 18 -6q0 -2 1 -4.5t1 -3.5q0 -13 -14 -27q-101 -88 -260 -88q-171 0 -281 98.5t-147 260.5q-74 -6 -103 -6q-86 0 -86 32z" />
<glyph unicode="&#x25fc;" horiz-adv-x="450" d="M0 0v451h451v-451h-451z" />
</font>
</defs>
</svg>
